<?xml version="1.0" encoding="UTF-8" standalone="no"?>
<!-- Created with VPaint (http://www.vpaint.org/) -->

<!DOCTYPE svg PUBLIC "-//W3C//DTD SVG 1.1//EN"
  "http://www.w3.org/Graphics/SVG/1.1/DTD/svg11.dtd">
<svg xmlns="http://www.w3.org/2000/svg">
<path d="M 172,191 L 172,191 L 172.583,193.943 L 173.146,196.89 L 173.668,199.844 L 174.136,202.807 L 174.576,205.775 L 174.941,208.752 L 175.289,211.732 L 175.603,214.716 L 175.892,217.702 L 176.169,220.689 L 176.42,223.678 L 176.668,226.668 L 176.91,229.658 L 177.149,232.649 L 177.386,235.639 L 177.614,238.631 L 177.84,241.622 L 178.064,244.614 L 178.297,247.605 L 178.535,250.595 L 178.738,253.588 L 178.937,256.582 L 179.128,259.576 L 179.316,262.57 L 179.503,265.564 L 179.693,268.558 L 179.877,271.552 L 180.052,274.547 L 180.224,277.542 L 180.395,280.537 L 180.562,283.533 L 180.73,286.528 L 180.895,289.523 L 181.059,292.519 L 181.223,295.514 L 181.386,298.51 L 181.546,301.506 L 181.697,304.502 L 181.846,307.498 L 181.993,310.495 L 182.133,313.491 L 182.272,316.488 L 182.406,319.485 L 182.54,322.482 L 182.674,325.479 L 182.794,328.477 L 182.912,331.474 L 183.024,334.472 L 183.129,337.471 L 183.231,340.469 L 183.316,343.468 L 183.399,346.466 L 183.476,349.465 L 183.547,352.465 L 183.615,355.464 L 183.677,358.463 L 183.738,361.463 L 183.797,364.462 L 183.852,367.461 L 183.906,370.461 L 183.952,373.461 L 183.996,376.46 L 184.037,379.46 L 184.074,382.46 L 184.109,385.46 L 184.143,388.459 L 184.177,391.459 L 184.212,394.459 L 184.249,397.459 L 184.288,400.459 L 184.351,403.458 L 184.423,406.457 L 184.513,409.456 L 184.62,412.454 L 184.737,415.451 L 184.863,418.449 L 184.997,421.446 L 185.146,424.442 L 185.318,427.437 L 185.501,430.432 L 185.725,433.423 L 185.91,436.418 L 186.019,439.416 L 186.036,442.416 L 186.009,445.415 L 186.013,448.415 L 186.058,451.415 L 186.186,454.412 L 186.476,457.398 L 186.848,460.375 L 188.008,463.142 L 189.625,465.669 L 191.966,467.545 L 194.717,468.743 L 197.603,469.56 L 200.597,469.753 L 203.592,469.93 L 206.588,470.08 L 209.585,470.205 L 212.583,470.326 L 215.574,470.553 L 218.57,470.719 L 221.569,470.775 L 224.569,470.826 L 227.568,470.881 L 230.563,471.051 L 233.561,471.172 L 236.561,471.205 L 239.561,471.226 L 242.561,471.241 L 245.561,471.247 L 248.561,471.253 L 251.561,471.261 L 254.56,471.325 L 257.559,471.41 L 260.559,471.414 L 263.559,471.417 L 266.559,471.417 L 269.559,471.416 L 272.559,471.414 L 275.559,471.412 L 278.559,471.412 L 281.559,471.413 L 284.559,471.427 L 287.559,471.451 L 290.557,471.538 L 293.557,471.596 L 296.557,471.603 L 299.557,471.61 L 302.557,471.618 L 305.557,471.627 L 308.557,471.637 L 311.557,471.648 L 314.557,471.661 L 317.557,471.674 L 320.557,471.689 L 323.557,471.705 L 326.557,471.722 L 329.557,471.74 L 332.556,471.759 L 335.556,471.79 L 338.556,471.819 L 341.556,471.842 L 344.556,471.854 L 347.556,471.861 L 350.556,471.867 L 353.556,471.874 L 356.556,471.88 L 359.556,471.887 L 362.556,471.895 L 365.556,471.915 L 368.556,471.934 L 371.556,471.952 L 374.556,471.961 L 377.556,471.965 L 380.556,471.968 L 383.556,471.97 L 386.556,471.972 L 389.556,471.973 L 392.556,471.974 L 395.556,471.974 L 398.556,471.974 L 401.556,471.973 L 404.556,471.972 L 407.556,471.97 L 410.556,471.968 L 413.556,471.966 L 416.556,471.963 L 419.556,471.96 L 422.556,471.956 L 425.556,471.953 L 428.556,471.951 L 431.556,471.954 L 434.556,471.952 L 437.556,471.948 L 440.556,471.941 L 443.556,471.935 L 446.556,471.928 L 449.556,471.921 L 452.556,471.913 L 455.556,471.906 L 458.556,471.898 L 461.556,471.89 L 464.556,471.882 L 467.556,471.874 L 470.556,471.866 L 473.556,471.857 L 476.556,471.849 L 479.556,471.84 L 482.556,471.831 L 485.556,471.822 L 488.556,471.813 L 491.556,471.804 L 494.556,471.794 L 497.556,471.785 L 500.556,471.775 L 503.556,471.766 L 506.556,471.758 L 509.556,471.75 L 512.556,471.741 L 515.556,471.732 L 518.555,471.724 L 521.555,471.717 L 524.555,471.711 L 527.555,471.705 L 530.555,471.7 L 533.555,471.696 L 536.555,471.691 L 539.555,471.689 L 542.555,471.688 L 545.555,471.695 L 548.555,471.698 L 551.555,471.695 L 554.555,471.694 L 557.555,471.693 L 560.555,471.696 L 563.555,471.699 L 566.555,471.703 L 569.555,471.707 L 572.555,471.712 L 575.555,471.716 L 578.555,471.719 L 581.555,471.72 L 584.555,471.718 L 587.555,471.714 L 590.555,471.704 L 593.555,471.692 L 596.555,471.676 L 599.555,471.653 L 602.555,471.628 L 605.555,471.594 L 608.555,471.557 L 611.554,471.513 L 614.554,471.464 L 617.554,471.41 L 620.553,471.348 L 623.552,471.282 L 626.551,471.211 L 629.55,471.134 L 632.549,471.053 L 635.548,470.965 L 638.547,470.875 L 641.545,470.781 L 644.544,470.687 L 647.542,470.592 L 650.541,470.497 L 653.539,470.403 L 656.538,470.309 L 659.536,470.215 L 662.535,470.12 L 665.533,470.022 L 668.532,469.926 L 671.53,469.832 L 674.528,469.733 L 677.527,469.632 L 680.525,469.527 L 683.523,469.423 L 686.521,469.321 L 689.52,469.226 L 692.519,469.137 L 695.518,469.065 L 698.517,469.003 L 701.517,468.957 L 704.517,468.934 L 707.517,468.925 L 710.516,468.953 L 713.516,468.996 L 716.515,469.063 L 719.514,469.148 L 722.513,469.245 L 725.51,469.372 L 728.507,469.516 L 731.502,469.689 L 734.494,469.905 L 737.484,470.145 L 740.468,470.454 L 743.449,470.792 L 746.424,471.183 L 749.39,471.628 L 752.353,472.101 L 755.309,472.612 L 758.267,473.113 L 761.228,473.592 L 764.197,474.021 L 767.17,474.424 L 770.152,474.757 L 773.137,475.059 L 776.127,475.302 L 779.121,475.486 L 782.117,475.64 L 785.115,475.745 L 788.114,475.844 L 791.112,475.931 L 794.112,475.99 L 797.111,476.034 L 800.111,476.055 L 803.111,476.083 L 806.111,476.123 L 809.111,476.16 L 812.11,476.196 L 815.11,476.231 L 818.11,476.273 L 821.11,476.326 L 824.109,476.358 L 827.109,476.379 L 830.109,476.387 L 833.109,476.392 L 836.109,476.391 L 839.109,476.384 L 842.109,476.373 L 845.109,476.352 L 848.109,476.312 L 851.108,476.24 L 854.107,476.15 L 857.105,476.051 L 860.102,475.926 L 863.099,475.791 L 866.095,475.636 L 869.09,475.46 L 872.084,475.273 L 875.077,475.063 L 878.069,474.845 L 881.06,474.613 L 884.05,474.365 L 887.039,474.107 L 890.025,473.821 L 893.011,473.526 L 895.994,473.21 L 898.975,472.877 L 901.956,472.533 L 904.934,472.174 L 907.912,471.81 L 910.889,471.44 L 913.865,471.065 L 916.842,470.689 L 919.818,470.312 L 922.794,469.938 L 925.771,469.566 L 928.749,469.2 L 931.727,468.838 L 934.706,468.487 L 937.686,468.141 L 940.667,467.804 L 943.65,467.477 L 946.632,467.156 L 949.617,466.849 L 952.601,466.547 L 955.587,466.253 L 958.574,465.97 L 961.561,465.692 L 964.55,465.436 L 967.54,465.189 L 970,465 L 970.034,462.032 L 970.07,459.032 L 970.11,456.032 L 970.12,453.032 L 970.056,450.033 L 969.899,447.037 L 969.655,444.047 L 969.457,441.054 L 969.349,438.056 L 969.332,435.056 L 969.367,432.056 L 969.419,429.056 L 969.462,426.057 L 969.495,423.057 L 969.526,420.057 L 969.557,417.057 L 969.591,414.057 L 969.63,411.058 L 969.666,408.058 L 969.692,405.058 L 969.682,402.058 L 969.625,399.059 L 969.544,396.06 L 969.447,393.061 L 969.351,390.063 L 969.257,387.064 L 969.164,384.066 L 969.073,381.067 L 968.987,378.068 L 968.905,375.069 L 968.83,372.07 L 968.764,369.071 L 968.707,366.072 L 968.653,363.072 L 968.596,360.073 L 968.53,357.073 L 968.458,354.074 L 968.387,351.075 L 968.293,348.077 L 968.165,345.079 L 968.003,342.084 L 967.807,339.09 L 967.565,336.1 L 967.285,333.113 L 966.988,330.128 L 966.731,327.139 L 966.521,324.146 L 966.35,321.151 L 966.187,318.155 L 966.01,315.161 L 965.798,312.168 L 965.567,309.177 L 965.339,306.186 L 965.12,303.194 L 964.911,300.201 L 964.729,297.207 L 964.573,294.211 L 964.444,291.213 L 964.341,288.215 L 964.254,285.216 L 964.194,282.217 L 964.155,279.217 L 964.135,276.217 L 964.133,273.217 L 964.144,270.217 L 964.173,267.217 L 964.214,264.218 L 964.268,261.218 L 964.326,258.219 L 964.384,255.219 L 964.438,252.22 L 964.489,249.22 L 964.534,246.221 L 964.571,243.221 L 964.6,240.221 L 964.614,237.221 L 964.617,234.221 L 964.609,231.221 L 964.588,228.221 L 964.559,225.221 L 964.512,222.222 L 964.455,219.222 L 964.39,216.223 L 964.318,213.224 L 964.24,210.225 L 964.139,207.226 L 964.031,204.228 L 963.923,201.23 L 963.816,198.232 L 963.708,195.234 L 963.575,192.237 L 963.435,189.24 L 963.299,186.243 L 963.163,183.247 L 963.025,180.25 L 962.917,177.252 L 962.813,174.253 L 962.696,171.256 L 962.615,168.257 L 962.563,165.257 L 962.526,162.258 L 962.502,159.258 L 962.504,156.258 L 962.431,153.258 L 962.301,150.261 L 961.93,147.284 L 961.169,144.383 L 959.622,141.812 L 956.877,140.602 L 953.879,140.474 L 950.879,140.487 L 947.88,140.505 L 944.88,140.531 L 941.88,140.518 L 938.88,140.462 L 935.897,140.145 L 932.91,139.865 L 929.917,139.66 L 926.918,139.6 L 923.918,139.608 L 920.918,139.621 L 917.918,139.633 L 914.918,139.642 L 911.918,139.651 L 908.918,139.66 L 905.918,139.67 L 902.918,139.682 L 899.918,139.697 L 896.918,139.714 L 893.918,139.734 L 890.918,139.759 L 887.918,139.785 L 884.918,139.809 L 881.918,139.832 L 878.919,139.852 L 875.919,139.867 L 872.919,139.876 L 869.919,139.876 L 866.919,139.865 L 863.919,139.842 L 860.919,139.799 L 857.919,139.749 L 854.92,139.677 L 851.922,139.579 L 848.925,139.445 L 845.93,139.261 L 842.939,139.035 L 839.953,138.748 L 836.972,138.41 L 834,138.002 L 831.037,137.528 L 828.082,137.015 L 825.133,136.464 L 822.187,135.894 L 819.241,135.331 L 816.291,134.785 L 813.336,134.266 L 810.373,133.798 L 807.403,133.374 L 804.423,133.025 L 801.437,132.735 L 798.446,132.5 L 795.451,132.335 L 792.453,132.221 L 789.454,132.173 L 786.454,132.168 L 783.454,132.2 L 780.455,132.275 L 777.456,132.375 L 774.46,132.515 L 771.464,132.679 L 768.47,132.874 L 765.479,133.103 L 762.49,133.354 L 759.503,133.636 L 756.518,133.933 L 753.534,134.246 L 750.552,134.573 L 747.571,134.909 L 744.593,135.271 L 741.616,135.643 L 738.641,136.03 L 735.668,136.429 L 732.695,136.835 L 729.725,137.259 L 726.756,137.689 L 723.789,138.13 L 720.823,138.582 L 717.858,139.04 L 714.896,139.511 L 711.934,139.988 L 708.973,140.472 L 706.014,140.964 L 703.055,141.461 L 700.101,141.983 L 697.147,142.508 L 694.194,143.037 L 691.24,143.56 L 688.286,144.082 L 685.332,144.606 L 682.378,145.13 L 679.424,145.655 L 676.471,146.18 L 673.517,146.705 L 670.563,147.229 L 667.609,147.753 L 664.655,148.276 L 661.701,148.799 L 658.747,149.32 L 655.792,149.841 L 652.838,150.361 L 649.883,150.88 L 646.928,151.398 L 643.973,151.916 L 641.018,152.433 L 638.064,152.959 L 635.112,153.49 L 632.157,154.009 L 629.201,154.522 L 626.244,155.027 L 623.287,155.531 L 620.328,156.031 L 617.37,156.527 L 614.41,157.019 L 611.45,157.507 L 608.49,157.991 L 605.528,158.472 L 602.567,158.948 L 599.604,159.421 L 596.641,159.889 L 593.677,160.352 L 590.711,160.806 L 587.745,161.256 L 584.778,161.699 L 581.81,162.134 L 578.841,162.565 L 575.871,162.989 L 572.9,163.408 L 569.929,163.819 L 566.956,164.224 L 563.983,164.624 L 561.009,165.017 L 558.034,165.406 L 555.058,165.787 L 552.082,166.163 L 549.105,166.534 L 546.127,166.899 L 543.149,167.26 L 540.17,167.616 L 537.191,167.966 L 534.211,168.313 L 531.23,168.654 L 528.25,168.993 L 525.268,169.326 L 522.286,169.655 L 519.304,169.982 L 516.322,170.308 L 513.34,170.636 L 510.357,170.952 L 507.373,171.262 L 504.388,171.567 L 501.403,171.869 L 498.418,172.167 L 495.433,172.459 L 492.447,172.748 L 489.46,173.034 L 486.473,173.316 L 483.486,173.595 L 480.499,173.869 L 477.511,174.139 L 474.523,174.406 L 471.535,174.669 L 468.546,174.929 L 465.557,175.183 L 462.567,175.433 L 459.577,175.68 L 456.587,175.922 L 453.597,176.162 L 450.606,176.396 L 447.615,176.628 L 444.623,176.856 L 441.632,177.08 L 438.64,177.302 L 435.648,177.519 L 432.656,177.734 L 429.663,177.946 L 426.67,178.155 L 423.678,178.362 L 420.684,178.565 L 417.691,178.766 L 414.698,178.965 L 411.704,179.161 L 408.711,179.356 L 405.717,179.546 L 402.723,179.735 L 399.728,179.921 L 396.734,180.105 L 393.74,180.287 L 390.745,180.465 L 387.75,180.641 L 384.755,180.814 L 381.76,180.985 L 378.765,181.153 L 375.769,181.319 L 372.774,181.483 L 369.778,181.645 L 366.782,181.806 L 363.786,181.964 L 360.791,182.12 L 357.795,182.276 L 354.799,182.429 L 351.802,182.581 L 348.806,182.732 L 345.81,182.882 L 342.814,183.03 L 339.817,183.178 L 336.821,183.324 L 333.824,183.47 L 330.828,183.614 L 327.831,183.758 L 324.835,183.901 L 321.838,184.042 L 318.841,184.183 L 315.844,184.322 L 312.848,184.46 L 309.851,184.597 L 306.854,184.733 L 303.857,184.869 L 300.86,185.004 L 297.863,185.138 L 294.866,185.272 L 291.869,185.406 L 288.872,185.539 L 285.875,185.672 L 282.878,185.804 L 279.881,185.936 L 276.884,186.069 L 273.887,186.201 L 270.889,186.333 L 267.892,186.464 L 264.895,186.596 L 261.898,186.727 L 258.901,186.858 L 255.904,186.989 L 252.907,187.12 L 249.91,187.251 L 246.912,187.382 L 243.915,187.515 L 240.918,187.648 L 237.921,187.782 L 234.924,187.919 L 231.928,188.058 L 228.931,188.199 L 225.934,188.341 L 222.938,188.483 L 219.941,188.626 L 216.944,188.769 L 213.948,188.912 L 210.951,189.055 L 207.955,189.198 L 204.958,189.341 L 201.962,189.484 L 198.965,189.625 L 195.968,189.766 L 192.972,189.907 L 189.975,190.054 L 186.979,190.203 L 183.983,190.363 L 180.987,190.524 L 177.992,190.686 L 174.996,190.844 L 172,191 Z M 722,383 L 722,383 L 720.155,383 L 717.155,383 L 714.155,383 L 711.155,383 L 708.155,383 L 705.155,383 L 702.155,383 L 699.155,383 L 696.155,383 L 693.155,383 L 690.155,383 L 687.155,383 L 684.155,383 L 681.155,383 L 678.155,383 L 675.155,383 L 672.155,382.999 L 669.155,382.99 L 666.155,382.976 L 663.155,382.959 L 660.155,382.981 L 657.156,383.049 L 654.157,382.974 L 651.198,382.481 L 648.698,380.821 L 647.151,378.251 L 646.419,375.342 L 645.908,372.385 L 645.422,369.425 L 644.939,366.464 L 644.453,363.504 L 643.966,360.543 L 643.447,357.589 L 642.901,354.639 L 642.314,351.697 L 641.664,348.768 L 640.972,345.849 L 640.165,342.96 L 639.281,340.093 L 638.284,337.263 L 637.187,334.471 L 636.029,331.704 L 634.77,328.98 L 633.465,326.279 L 632.103,323.606 L 630.697,320.956 L 629.264,318.321 L 627.756,315.727 L 626.207,313.158 L 624.603,310.623 L 622.936,308.128 L 621.229,305.662 L 619.571,303.162 L 618.054,300.573 L 616.866,297.818 L 616.06,294.929 L 615.508,291.98 L 615.217,288.994 L 614.968,286.004 L 614.681,283.018 L 614.254,280.049 L 613.724,277.096 L 613.202,274.142 L 612.78,271.171 L 612.593,268.177 L 614.268,265.688 L 616.986,264.419 L 619.64,263.02 L 622.261,261.56 L 624.812,259.982 L 627.35,258.383 L 629.882,256.773 L 632.353,255.072 L 634.795,253.33 L 637.178,251.507 L 639.501,249.609 L 641.795,247.675 L 643.988,245.629 L 646.154,243.552 L 648.261,241.417 L 650.324,239.239 L 652.365,237.04 L 654.352,234.792 L 656.332,232.539 L 658.299,230.274 L 660.27,228.012 L 662.242,225.751 L 664.233,223.507 L 666.228,221.266 L 668.228,219.031 L 670.229,216.796 L 672.231,214.561 L 674.233,212.327 L 676.234,210.092 L 678.231,207.853 L 680.223,205.61 L 682.213,203.365 L 684.228,201.142 L 686.208,198.888 L 688.116,196.573 L 690.051,194.281 L 692,192 L 694.024,194.214 L 696.076,196.403 L 698.183,198.539 L 700.316,200.648 L 702.464,202.742 L 704.592,204.857 L 706.693,206.998 L 708.749,209.183 L 710.753,211.416 L 712.719,213.681 L 714.646,215.98 L 716.539,218.308 L 718.412,220.651 L 720.271,223.007 L 722.135,225.357 L 724.011,227.698 L 725.921,230.011 L 727.866,232.296 L 729.872,234.527 L 731.942,236.698 L 734.045,238.837 L 736.244,240.877 L 738.476,242.882 L 740.766,244.82 L 743.087,246.721 L 745.424,248.602 L 747.79,250.446 L 750.158,252.288 L 752.509,254.152 L 754.817,256.068 L 757.086,258.031 L 759.311,260.043 L 761.509,262.085 L 763.72,264.113 L 765.994,266.07 L 768.377,267.892 L 770.91,269.5 L 773.587,270.854 L 775.477,273.184 L 776.025,276.133 L 775.789,279.124 L 775.133,282.051 L 774.08,284.86 L 772.942,287.636 L 771.701,290.368 L 770.608,293.161 L 769.614,295.992 L 768.941,298.915 L 768.383,301.863 L 767.984,304.836 L 767.575,307.808 L 767.137,310.776 L 766.61,313.73 L 766.079,316.682 L 765.599,319.643 L 765.159,322.611 L 764.738,325.581 L 764.298,328.549 L 763.78,331.504 L 763.11,334.428 L 762.223,337.294 L 761.13,340.088 L 759.859,342.805 L 758.371,345.41 L 756.791,347.961 L 755.116,350.449 L 753.438,352.936 L 751.774,355.432 L 750.174,357.97 L 748.667,360.564 L 747.31,363.24 L 746.129,365.997 L 745.035,368.791 L 744.026,371.616 L 742.733,374.323 L 740.959,376.742 L 738.452,378.39 L 735.685,379.549 L 732.773,380.27 L 729.847,380.932 L 726.918,381.584 L 724.028,382.389 L 722,383 Z M 286,257 L 286,257 L 288.987,256.721 L 291.978,256.49 L 294.975,256.352 L 297.975,256.304 L 300.975,256.305 L 303.973,256.402 L 306.97,256.536 L 309.965,256.715 L 312.956,256.938 L 315.946,257.187 L 318.931,257.488 L 321.912,257.824 L 324.89,258.188 L 327.864,258.582 L 330.835,258.996 L 333.802,259.438 L 336.766,259.907 L 339.726,260.39 L 342.684,260.894 L 345.639,261.413 L 348.591,261.945 L 351.54,262.497 L 354.487,263.055 L 357.434,263.621 L 360.379,264.19 L 363.324,264.76 L 366.27,265.328 L 369.219,265.88 L 372.173,266.402 L 375.135,266.878 L 378.101,267.332 L 381.082,267.665 L 384.069,267.941 L 387.064,268.126 L 390.063,268.206 L 393.063,268.223 L 396.059,268.078 L 399.049,267.83 L 402.027,267.466 L 404.985,266.967 L 407.926,266.377 L 410.832,265.63 L 413.705,264.768 L 416.557,263.837 L 419.395,262.865 L 422.234,261.896 L 425.092,260.983 L 427.979,260.166 L 430.896,259.464 L 433.848,258.932 L 436.824,258.551 L 439.769,259.121 L 442.02,261.105 L 443.59,263.661 L 444.328,266.569 L 444.734,269.541 L 444.958,272.533 L 445.04,275.532 L 445.082,278.532 L 445.091,281.532 L 445.166,284.531 L 445.255,287.529 L 445.286,290.529 L 445.333,293.529 L 445.409,296.528 L 445.515,299.526 L 445.629,302.524 L 445.708,305.523 L 445.783,308.522 L 445.856,311.521 L 445.942,314.52 L 446.034,317.518 L 446.109,320.517 L 446.18,323.516 L 446.255,326.516 L 446.335,329.514 L 446.419,332.513 L 446.511,335.512 L 446.608,338.51 L 446.706,341.509 L 446.808,344.507 L 446.913,347.505 L 447.025,350.503 L 447.145,353.501 L 447.272,356.498 L 447.407,359.495 L 447.552,362.491 L 447.708,365.487 L 447.884,368.482 L 448.073,371.476 L 448.283,374.469 L 448.518,377.46 L 448.765,380.449 L 449.01,383.439 L 449.224,386.432 L 449.387,389.427 L 449.499,392.425 L 449.59,395.424 L 449.688,398.422 L 449.785,401.421 L 449.883,404.419 L 449.981,407.417 L 450,408 L 449.019,407.995 L 446.019,407.979 L 443.019,407.957 L 440.019,407.934 L 437.019,407.913 L 434.019,407.896 L 431.019,407.881 L 428.019,407.873 L 425.019,407.869 L 422.019,407.87 L 419.019,407.878 L 416.019,407.89 L 413.02,407.91 L 410.02,407.933 L 407.02,407.963 L 404.02,408 L 401.02,408.041 L 398.021,408.092 L 395.021,408.147 L 392.022,408.209 L 389.023,408.278 L 386.024,408.351 L 383.025,408.432 L 380.026,408.516 L 377.027,408.606 L 374.029,408.702 L 371.03,408.801 L 368.032,408.906 L 365.034,409.014 L 362.036,409.126 L 359.038,409.241 L 356.041,409.358 L 353.043,409.477 L 350.045,409.585 L 347.046,409.667 L 344.048,409.771 L 341.05,409.888 L 338.053,410.015 L 335.056,410.144 L 332.059,410.277 L 329.06,410.369 L 326.061,410.436 L 323.062,410.514 L 320.063,410.594 L 317.064,410.676 L 314.066,410.798 L 311.07,410.946 L 308.076,411.134 L 305.082,411.319 L 302.086,411.487 L 299.092,411.677 L 296.099,411.882 L 293.101,411.985 L 290.106,411.808 L 287.213,411.014 L 284.908,409.094 L 283.163,406.654 L 282.858,403.669 L 282.762,400.671 L 283.061,397.686 L 283.45,394.711 L 283.883,391.743 L 284.321,388.775 L 284.744,385.805 L 285.136,382.83 L 285.483,379.851 L 285.806,376.868 L 286.048,373.878 L 286.267,370.886 L 286.44,367.891 L 286.588,364.894 L 286.723,361.897 L 286.826,358.899 L 286.914,355.901 L 286.971,352.901 L 286.996,349.901 L 287.005,346.901 L 286.966,343.901 L 286.914,340.902 L 286.837,337.903 L 286.741,334.904 L 286.636,331.906 L 286.51,328.909 L 286.382,325.912 L 286.247,322.915 L 286.109,319.918 L 285.969,316.921 L 285.83,313.924 L 285.694,310.927 L 285.562,307.93 L 285.436,304.933 L 285.312,301.936 L 285.205,298.937 L 285.103,295.939 L 285.014,292.941 L 284.939,289.941 L 284.873,286.942 L 284.837,283.942 L 284.812,280.942 L 284.808,277.942 L 284.826,274.943 L 284.857,271.943 L 284.945,268.944 L 285.064,265.946 L 285.246,262.952 L 285.584,259.971 L 286,257 Z M 446.402,127.409 L 446.402,127.409 L 448.43,125.199 L 450.475,123.003 L 452.716,121.01 L 454.958,119.016 L 457.388,117.257 L 459.85,115.543 L 462.344,113.875 L 464.89,112.289 L 467.437,110.702 L 470.011,109.162 L 472.597,107.642 L 475.184,106.122 L 477.929,104.912 L 480.684,103.725 L 483.454,102.572 L 486.304,101.635 L 489.153,100.698 L 492.017,99.8035 L 494.899,98.9702 L 497.781,98.137 L 500.677,97.3557 L 503.579,96.5928 L 506.484,95.8435 L 509.414,95.1995 L 512.344,94.5556 L 515.279,93.9358 L 518.218,93.3318 L 521.16,92.748 L 524.12,92.259 L 527.08,91.7701 L 530.05,91.3435 L 533.02,90.9253 L 536.004,90.6151 L 538.993,90.3504 L 541.989,90.194 L 544.988,90.2442 L 547.956,90.6718 L 550.864,91.3958 L 553.64,92.5267 L 556.279,93.9498 L 558.748,95.6466 L 560.987,97.6358 L 562.914,99.9337 L 564.467,102.501 L 565.544,105.293 L 566.189,108.208 L 566.485,111.188 L 566.5,114.188 L 566.201,117.172 L 565.748,120.136 L 565.162,123.077 L 564.466,125.995 L 563.619,128.873 L 562.686,131.724 L 561.695,134.555 L 560.641,137.363 L 559.486,140.132 L 558.322,142.897 L 557.544,145.792 L 557.386,148.773 L 557.831,151.728 L 558.791,154.561 L 560.161,157.223 L 561.862,159.691 L 563.798,161.98 L 565.914,164.106 L 568.179,166.072 L 570.548,167.913 L 572.992,169.652 L 575.479,171.328 L 577.99,172.97 L 580.498,174.616 L 582.962,176.327 L 585.336,178.161 L 587.545,180.187 L 589.485,182.468 L 591.001,185.048 L 591.821,187.921 L 591.907,190.907 L 591.371,193.849 L 590.363,196.669 L 589.083,199.38 L 587.64,202.01 L 586.106,204.587 L 584.595,207.179 L 583.223,209.846 L 581.883,212.53 L 580.305,215.077 L 578.478,217.454 L 576.477,219.687 L 574.35,221.802 L 572.141,223.831 L 569.845,225.761 L 567.505,227.639 L 565.139,229.482 L 562.747,231.294 L 560.349,233.096 L 557.935,234.877 L 555.501,236.631 L 553.027,238.328 L 550.499,239.943 L 547.93,241.491 L 545.212,242.75 L 542.378,243.73 L 539.427,244.219 L 536.434,244.394 L 533.435,244.359 L 530.47,243.94 L 527.552,243.248 L 524.717,242.275 L 521.984,241.042 L 519.346,239.617 L 516.787,238.052 L 514.282,236.401 L 511.828,234.676 L 509.407,232.904 L 507.026,231.08 L 504.673,229.219 L 502.342,227.33 L 500.036,225.412 L 497.742,223.478 L 495.471,221.518 L 493.213,219.543 L 490.978,217.541 L 488.781,215.499 L 486.596,213.443 L 484.428,211.37 L 482.274,209.281 L 480.155,207.158 L 478.148,204.93 L 476.222,202.629 L 474.324,200.306 L 472.469,197.948 L 470.652,195.562 L 468.865,193.152 L 467.175,190.674 L 465.583,188.131 L 464.022,185.569 L 462.51,182.978 L 461.072,180.346 L 459.655,177.702 L 458.267,175.042 L 456.93,172.357 L 455.614,169.661 L 454.362,166.935 L 453.23,164.157 L 452.134,161.364 L 451.073,158.558 L 450.056,155.736 L 449.08,152.899 L 448.203,150.03 L 447.389,147.143 L 446.627,144.242 L 445.927,141.325 L 445.302,138.391 L 444.876,135.422 L 444.983,132.434 L 445.692,129.528 L 446.402,127.409 Z " style="fill:rgb(143,120,255);fill-opacity:1;fill-rule:evenodd;stroke:none" />
<path d="M 167.095,191.972 L 167.678,194.915 L 168.235,197.828 L 168.745,200.714 L 169.197,203.586 L 169.63,206.508 L 169.978,209.361 L 170.323,212.312 L 170.63,215.239 L 170.915,218.184 L 171.191,221.151 L 171.437,224.096 L 171.685,227.081 L 171.926,230.062 L 172.165,233.047 L 172.402,236.035 L 172.628,239.009 L 172.854,241.999 L 173.077,244.987 L 173.312,247.993 L 173.551,250.992 L 173.749,253.926 L 173.948,256.913 L 174.138,259.895 L 174.326,262.884 L 174.513,265.875 L 174.703,268.874 L 174.887,271.86 L 175.06,274.838 L 175.232,277.829 L 175.403,280.822 L 175.57,283.812 L 175.737,286.807 L 175.903,289.8 L 176.067,292.792 L 176.23,295.786 L 176.393,298.782 L 176.553,301.772 L 176.704,304.755 L 176.852,307.746 L 176.999,310.739 L 177.139,313.725 L 177.277,316.719 L 177.411,319.709 L 177.545,322.706 L 177.679,325.703 L 177.798,328.678 L 177.916,331.671 L 178.028,334.659 L 178.132,337.645 L 178.233,340.638 L 178.318,343.61 L 178.401,346.604 L 178.477,349.593 L 178.548,352.583 L 178.616,355.578 L 178.678,358.567 L 178.739,361.564 L 178.798,364.561 L 178.853,367.554 L 178.906,370.55 L 178.952,373.537 L 178.997,376.534 L 179.037,379.528 L 179.074,382.522 L 179.11,385.519 L 179.143,388.515 L 179.177,391.516 L 179.212,394.518 L 179.25,397.521 L 179.288,400.523 L 179.352,403.563 L 179.424,406.577 L 179.515,409.606 L 179.624,412.633 L 179.741,415.646 L 179.867,418.659 L 180.002,421.669 L 180.152,424.691 L 180.326,427.723 L 180.51,430.736 L 180.739,433.796 L 180.92,436.727 L 181.022,439.596 L 181.036,442.445 L 181.009,445.369 L 181.013,448.422 L 181.058,451.491 L 181.191,454.626 L 181.5,457.882 L 181.887,460.995 L 183.397,465.075 L 185.414,468.364 L 188.84,471.446 L 192.72,473.327 L 196.24,474.371 L 200.276,474.742 L 203.296,474.921 L 206.338,475.074 L 209.377,475.201 L 212.382,475.322 L 215.195,475.539 L 218.294,475.711 L 221.476,475.774 L 224.484,475.825 L 227.476,475.88 L 230.28,476.043 L 233.36,476.168 L 236.506,476.204 L 239.525,476.226 L 242.535,476.241 L 245.551,476.247 L 248.551,476.253 L 251.546,476.261 L 254.454,476.324 L 257.418,476.408 L 260.551,476.414 L 263.554,476.417 L 266.559,476.417 L 269.561,476.416 L 272.562,476.414 L 275.562,476.412 L 278.56,476.412 L 281.556,476.413 L 284.536,476.427 L 287.519,476.451 L 290.412,476.536 L 293.46,476.595 L 296.546,476.603 L 299.545,476.61 L 302.544,476.617 L 305.541,476.627 L 308.54,476.637 L 311.538,476.648 L 314.536,476.661 L 317.534,476.674 L 320.531,476.689 L 323.53,476.705 L 326.528,476.722 L 329.527,476.74 L 332.525,476.759 L 335.504,476.79 L 338.509,476.819 L 341.517,476.842 L 344.536,476.854 L 347.545,476.861 L 350.545,476.867 L 353.545,476.874 L 356.545,476.88 L 359.545,476.887 L 362.543,476.895 L 365.523,476.914 L 368.524,476.934 L 371.525,476.952 L 374.542,476.961 L 377.549,476.965 L 380.551,476.968 L 383.552,476.97 L 386.553,476.972 L 389.554,476.973 L 392.554,476.974 L 395.556,476.974 L 398.556,476.974 L 401.557,476.973 L 404.558,476.972 L 407.558,476.97 L 410.56,476.968 L 413.56,476.966 L 416.561,476.963 L 419.561,476.96 L 422.562,476.956 L 425.562,476.953 L 428.558,476.951 L 431.551,476.954 L 434.559,476.952 L 437.563,476.948 L 440.567,476.941 L 443.567,476.935 L 446.567,476.928 L 449.568,476.921 L 452.568,476.913 L 455.568,476.906 L 458.569,476.898 L 461.569,476.89 L 464.569,476.882 L 467.569,476.874 L 470.57,476.866 L 473.57,476.857 L 476.57,476.849 L 479.57,476.84 L 482.57,476.831 L 485.571,476.822 L 488.571,476.813 L 491.571,476.804 L 494.571,476.794 L 497.571,476.785 L 500.572,476.775 L 503.57,476.766 L 506.568,476.758 L 509.57,476.75 L 512.571,476.741 L 515.57,476.732 L 518.569,476.724 L 521.567,476.717 L 524.566,476.711 L 527.565,476.705 L 530.563,476.7 L 533.563,476.696 L 536.562,476.691 L 539.56,476.689 L 542.558,476.688 L 545.543,476.695 L 548.55,476.698 L 551.561,476.695 L 554.558,476.694 L 557.556,476.693 L 560.552,476.696 L 563.55,476.699 L 566.548,476.703 L 569.548,476.707 L 572.547,476.712 L 575.549,476.716 L 578.551,476.719 L 581.554,476.72 L 584.559,476.718 L 587.562,476.714 L 590.571,476.704 L 593.576,476.692 L 596.583,476.675 L 599.592,476.653 L 602.597,476.628 L 605.612,476.594 L 608.617,476.556 L 611.626,476.513 L 614.637,476.463 L 617.642,476.41 L 620.657,476.347 L 623.662,476.281 L 626.67,476.209 L 629.679,476.132 L 632.683,476.051 L 635.695,475.963 L 638.697,475.872 L 641.701,475.779 L 644.701,475.684 L 647.7,475.589 L 650.699,475.495 L 653.696,475.4 L 656.694,475.306 L 659.693,475.212 L 662.693,475.117 L 665.696,475.019 L 668.692,474.923 L 671.687,474.829 L 674.693,474.73 L 677.696,474.629 L 680.7,474.524 L 683.696,474.42 L 686.692,474.318 L 689.677,474.224 L 692.668,474.134 L 695.637,474.064 L 698.621,474.001 L 701.593,473.956 L 704.554,473.934 L 707.532,473.925 L 710.469,473.953 L 713.446,473.995 L 716.403,474.062 L 719.372,474.146 L 722.352,474.242 L 725.297,474.368 L 728.268,474.51 L 731.213,474.68 L 734.133,474.892 L 737.083,475.129 L 739.953,475.428 L 742.886,475.76 L 745.773,476.14 L 748.648,476.573 L 751.563,477.039 L 754.457,477.539 L 757.433,478.043 L 760.43,478.527 L 763.481,478.97 L 766.5,479.378 L 769.596,479.726 L 772.634,480.034 L 775.721,480.286 L 778.814,480.477 L 781.861,480.633 L 784.94,480.742 L 787.949,480.841 L 790.968,480.928 L 794.013,480.989 L 797.037,481.033 L 800.077,481.055 L 803.065,481.082 L 806.045,481.122 L 809.049,481.159 L 812.05,481.196 L 815.052,481.231 L 818.04,481.273 L 821.021,481.325 L 824.056,481.358 L 827.074,481.379 L 830.095,481.387 L 833.101,481.392 L 836.111,481.391 L 839.121,481.384 L 842.127,481.373 L 845.145,481.352 L 848.175,481.312 L 851.229,481.238 L 854.256,481.148 L 857.27,481.048 L 860.31,480.922 L 863.325,480.786 L 866.353,480.63 L 869.383,480.452 L 872.397,480.263 L 875.427,480.051 L 878.432,479.832 L 881.447,479.598 L 884.464,479.347 L 887.469,479.088 L 890.501,478.799 L 893.503,478.501 L 896.519,478.183 L 899.532,477.846 L 902.528,477.5 L 905.533,477.138 L 908.517,476.774 L 911.506,476.402 L 914.49,476.026 L 917.469,475.649 L 920.445,475.273 L 923.419,474.899 L 926.391,474.527 L 929.359,474.163 L 932.331,473.801 L 935.291,473.453 L 938.263,473.108 L 941.229,472.772 L 944.194,472.448 L 947.167,472.128 L 950.128,471.823 L 953.105,471.522 L 956.076,471.229 L 959.046,470.947 L 962.023,470.671 L 964.977,470.418 L 967.951,470.172 L 970.383,469.985 L 969.617,460.015 L 967.128,460.206 L 964.122,460.454 L 961.098,460.714 L 958.101,460.992 L 955.097,461.277 L 952.097,461.573 L 949.105,461.876 L 946.098,462.185 L 943.105,462.507 L 940.106,462.836 L 937.11,463.174 L 934.121,463.521 L 931.123,463.875 L 928.139,464.238 L 925.152,464.605 L 922.17,464.977 L 919.191,465.352 L 916.214,465.728 L 913.241,466.104 L 910.272,466.478 L 907.306,466.847 L 904.335,467.21 L 901.383,467.566 L 898.419,467.908 L 895.469,468.238 L 892.518,468.55 L 889.55,468.844 L 886.609,469.125 L 883.636,469.382 L 880.674,469.628 L 877.706,469.858 L 874.727,470.075 L 871.772,470.283 L 868.797,470.469 L 865.838,470.643 L 862.874,470.796 L 859.895,470.93 L 856.94,471.053 L 853.957,471.152 L 850.987,471.241 L 848.043,471.313 L 845.074,471.352 L 842.091,471.373 L 839.097,471.384 L 836.107,471.391 L 833.118,471.392 L 830.123,471.387 L 827.145,471.379 L 824.162,471.358 L 821.198,471.327 L 818.18,471.274 L 815.169,471.231 L 812.171,471.196 L 809.173,471.16 L 806.177,471.123 L 803.158,471.083 L 800.146,471.055 L 797.186,471.035 L 794.21,470.99 L 791.257,470.933 L 788.278,470.847 L 785.29,470.748 L 782.373,470.646 L 779.428,470.496 L 776.532,470.319 L 773.639,470.084 L 770.708,469.788 L 767.841,469.469 L 764.914,469.073 L 762.027,468.656 L 759.101,468.183 L 756.16,467.685 L 753.142,467.164 L 750.133,466.683 L 747.074,466.225 L 744.012,465.824 L 740.983,465.481 L 737.885,465.161 L 734.854,464.918 L 731.79,464.697 L 728.745,464.521 L 725.723,464.377 L 722.673,464.247 L 719.657,464.15 L 716.627,464.064 L 713.586,463.996 L 710.564,463.954 L 707.501,463.925 L 704.479,463.935 L 701.441,463.958 L 698.413,464.004 L 695.399,464.066 L 692.369,464.139 L 689.363,464.229 L 686.351,464.324 L 683.35,464.426 L 680.35,464.53 L 677.358,464.634 L 674.364,464.736 L 671.374,464.834 L 668.371,464.928 L 665.37,465.025 L 662.377,465.122 L 659.379,465.217 L 656.381,465.311 L 653.382,465.405 L 650.383,465.5 L 647.384,465.594 L 644.386,465.689 L 641.389,465.784 L 638.396,465.877 L 635.401,465.967 L 632.415,466.055 L 629.422,466.135 L 626.433,466.212 L 623.443,466.283 L 620.449,466.349 L 617.465,466.411 L 614.471,466.464 L 611.482,466.514 L 608.493,466.557 L 605.498,466.594 L 602.513,466.628 L 599.518,466.653 L 596.528,466.676 L 593.535,466.692 L 590.539,466.704 L 587.549,466.714 L 584.552,466.718 L 581.557,466.72 L 578.56,466.719 L 575.562,466.716 L 572.563,466.712 L 569.563,466.707 L 566.562,466.703 L 563.56,466.699 L 560.559,466.696 L 557.555,466.693 L 554.553,466.694 L 551.55,466.695 L 548.561,466.698 L 545.568,466.695 L 542.553,466.688 L 539.551,466.689 L 536.549,466.691 L 533.548,466.696 L 530.547,466.7 L 527.546,466.705 L 524.545,466.711 L 521.544,466.717 L 518.542,466.724 L 515.541,466.732 L 512.54,466.741 L 509.541,466.75 L 506.543,466.758 L 503.541,466.766 L 500.54,466.775 L 497.54,466.785 L 494.54,466.794 L 491.54,466.804 L 488.54,466.813 L 485.541,466.822 L 482.541,466.831 L 479.541,466.84 L 476.541,466.849 L 473.542,466.857 L 470.542,466.866 L 467.542,466.874 L 464.542,466.882 L 461.543,466.89 L 458.543,466.898 L 455.543,466.906 L 452.544,466.913 L 449.544,466.921 L 446.544,466.928 L 443.545,466.935 L 440.545,466.941 L 437.549,466.948 L 434.552,466.952 L 431.56,466.954 L 428.554,466.951 L 425.55,466.953 L 422.55,466.956 L 419.55,466.96 L 416.551,466.963 L 413.552,466.966 L 410.552,466.968 L 407.553,466.97 L 404.554,466.972 L 401.555,466.973 L 398.555,466.974 L 395.556,466.974 L 392.557,466.974 L 389.558,466.973 L 386.559,466.972 L 383.56,466.97 L 380.561,466.968 L 377.562,466.965 L 374.57,466.961 L 371.587,466.953 L 368.588,466.934 L 365.589,466.915 L 362.569,466.895 L 359.567,466.887 L 356.567,466.88 L 353.567,466.874 L 350.567,466.867 L 347.567,466.861 L 344.576,466.854 L 341.595,466.843 L 338.604,466.819 L 335.608,466.791 L 332.588,466.759 L 329.586,466.74 L 326.585,466.722 L 323.583,466.705 L 320.582,466.69 L 317.579,466.674 L 314.578,466.661 L 311.575,466.648 L 308.573,466.637 L 305.572,466.627 L 302.57,466.618 L 299.569,466.61 L 296.568,466.603 L 293.653,466.597 L 290.703,466.54 L 287.598,466.451 L 284.582,466.427 L 281.561,466.413 L 278.558,466.412 L 275.556,466.412 L 272.555,466.414 L 269.557,466.416 L 266.559,466.417 L 263.564,466.417 L 260.567,466.414 L 257.7,466.412 L 254.666,466.326 L 251.575,466.261 L 248.57,466.253 L 245.57,466.247 L 242.586,466.241 L 239.596,466.226 L 236.616,466.205 L 233.762,466.176 L 230.847,466.059 L 227.66,465.882 L 224.653,465.826 L 221.663,465.776 L 218.846,465.726 L 215.954,465.568 L 212.784,465.33 L 209.794,465.21 L 206.838,465.086 L 203.887,464.939 L 200.918,464.763 L 198.966,464.75 L 196.714,464.159 L 195.093,463.643 L 193.836,462.973 L 192.619,461.209 L 191.81,459.755 L 191.453,456.915 L 191.182,454.198 L 191.057,451.339 L 191.013,448.409 L 191.009,445.461 L 191.036,442.386 L 191.015,439.235 L 190.901,436.109 L 190.711,433.05 L 190.492,430.127 L 190.31,427.151 L 190.14,424.193 L 189.992,421.223 L 189.858,418.239 L 189.733,415.257 L 189.617,412.274 L 189.51,409.306 L 189.421,406.337 L 189.35,403.353 L 189.288,400.394 L 189.249,397.396 L 189.211,394.401 L 189.176,391.403 L 189.142,388.404 L 189.109,385.4 L 189.073,382.398 L 189.036,379.392 L 188.995,376.387 L 188.951,373.384 L 188.905,370.372 L 188.851,367.369 L 188.796,364.363 L 188.737,361.361 L 188.676,358.36 L 188.614,355.35 L 188.545,352.346 L 188.474,349.338 L 188.397,346.329 L 188.314,343.325 L 188.228,340.3 L 188.126,337.296 L 188.021,334.285 L 187.908,331.278 L 187.79,328.276 L 187.669,325.256 L 187.535,322.259 L 187.401,319.262 L 187.266,316.258 L 187.128,313.257 L 186.987,310.25 L 186.84,307.251 L 186.691,304.249 L 186.539,301.24 L 186.379,298.238 L 186.215,295.243 L 186.052,292.246 L 185.888,289.247 L 185.722,286.249 L 185.555,283.253 L 185.387,280.252 L 185.216,277.255 L 185.043,274.256 L 184.868,271.245 L 184.683,268.242 L 184.493,265.253 L 184.307,262.256 L 184.118,259.256 L 183.926,256.25 L 183.726,253.25 L 183.519,250.199 L 183.282,247.216 L 183.05,244.241 L 182.826,241.245 L 182.599,238.252 L 182.371,235.244 L 182.133,232.25 L 181.894,229.254 L 181.651,226.255 L 181.402,223.261 L 181.148,220.227 L 180.869,217.219 L 180.575,214.193 L 180.255,211.152 L 179.904,208.144 L 179.522,205.041 L 179.075,202.028 L 178.592,198.973 L 178.057,195.951 L 177.488,192.971 L 176.905,190.028 Z" style="fill:rgb(0,0,0);fill-opacity:1;fill-rule:nonzero;stroke:none" />
<path d="M 172.26,195.993 L 175.256,195.837 L 178.255,195.679 L 181.257,195.517 L 184.251,195.356 L 187.245,195.196 L 190.225,195.048 L 193.216,194.901 L 196.203,194.761 L 199.2,194.619 L 202.197,194.478 L 205.196,194.335 L 208.193,194.193 L 211.19,194.049 L 214.187,193.906 L 217.183,193.763 L 220.179,193.62 L 223.175,193.477 L 226.171,193.335 L 229.167,193.194 L 232.163,193.053 L 235.155,192.914 L 238.15,192.777 L 241.143,192.643 L 244.137,192.51 L 247.133,192.377 L 250.128,192.246 L 253.125,192.115 L 256.122,191.984 L 259.119,191.853 L 262.116,191.722 L 265.114,191.591 L 268.111,191.46 L 271.109,191.328 L 274.106,191.196 L 277.104,191.064 L 280.101,190.932 L 283.098,190.799 L 286.096,190.667 L 289.093,190.534 L 292.091,190.401 L 295.089,190.267 L 298.086,190.133 L 301.084,189.999 L 304.082,189.864 L 307.08,189.728 L 310.078,189.592 L 313.076,189.455 L 316.075,189.316 L 319.073,189.177 L 322.072,189.037 L 325.071,188.895 L 328.069,188.752 L 331.067,188.609 L 334.065,188.464 L 337.063,188.318 L 340.062,188.172 L 343.059,188.024 L 346.058,187.876 L 349.055,187.726 L 352.054,187.575 L 355.052,187.423 L 358.05,187.269 L 361.049,187.114 L 364.047,186.957 L 367.047,186.799 L 370.045,186.638 L 373.044,186.476 L 376.043,186.311 L 379.04,186.146 L 382.041,185.977 L 385.04,185.806 L 388.038,185.632 L 391.038,185.456 L 394.035,185.278 L 397.037,185.096 L 400.035,184.912 L 403.033,184.725 L 406.032,184.536 L 409.028,184.345 L 412.028,184.151 L 415.025,183.954 L 418.022,183.755 L 421.02,183.554 L 424.015,183.351 L 427.016,183.143 L 430.011,182.934 L 433.009,182.722 L 436.006,182.506 L 439.001,182.289 L 442.003,182.066 L 444.997,181.842 L 447.995,181.613 L 450.992,181.381 L 453.986,181.147 L 456.987,180.906 L 459.981,180.664 L 462.978,180.416 L 465.974,180.165 L 468.968,179.911 L 471.968,179.65 L 474.961,179.387 L 477.956,179.119 L 480.95,178.848 L 483.942,178.574 L 486.939,178.294 L 489.93,178.012 L 492.923,177.726 L 495.915,177.436 L 498.906,177.143 L 501.9,176.844 L 504.89,176.542 L 507.882,176.236 L 510.873,175.925 L 513.867,175.608 L 516.869,175.278 L 519.848,174.952 L 522.83,174.626 L 525.817,174.296 L 528.805,173.962 L 531.795,173.622 L 534.781,173.28 L 537.769,172.932 L 540.754,172.581 L 543.741,172.225 L 546.729,171.863 L 549.714,171.497 L 552.701,171.124 L 555.684,170.748 L 558.67,170.365 L 561.656,169.975 L 564.639,169.581 L 567.623,169.179 L 570.603,168.774 L 573.586,168.36 L 576.569,167.94 L 579.548,167.515 L 582.528,167.082 L 585.504,166.646 L 588.483,166.201 L 591.46,165.75 L 594.435,165.294 L 597.411,164.829 L 600.384,164.36 L 603.355,163.886 L 606.323,163.408 L 609.29,162.927 L 612.258,162.441 L 615.223,161.953 L 618.191,161.459 L 621.155,160.962 L 624.119,160.461 L 627.083,159.956 L 630.044,159.45 L 633.011,158.936 L 635.977,158.414 L 638.95,157.88 L 641.893,157.356 L 644.836,156.841 L 647.791,156.323 L 650.747,155.805 L 653.703,155.285 L 656.659,154.765 L 659.614,154.244 L 662.571,153.722 L 665.526,153.2 L 668.481,152.676 L 671.436,152.152 L 674.391,151.628 L 677.345,151.103 L 680.299,150.578 L 683.253,150.053 L 686.206,149.529 L 689.159,149.005 L 692.109,148.484 L 695.067,147.96 L 698.028,147.43 L 700.975,146.906 L 703.925,146.385 L 706.842,145.895 L 709.794,145.404 L 712.741,144.922 L 715.689,144.448 L 718.644,143.977 L 721.586,143.523 L 724.542,143.073 L 727.491,142.635 L 730.443,142.207 L 733.401,141.785 L 736.344,141.383 L 739.306,140.986 L 742.26,140.602 L 745.213,140.232 L 748.173,139.873 L 751.112,139.542 L 754.08,139.216 L 757.038,138.906 L 759.998,138.612 L 762.961,138.332 L 765.897,138.085 L 768.852,137.859 L 771.788,137.669 L 774.734,137.507 L 777.689,137.369 L 780.621,137.272 L 783.578,137.199 L 786.508,137.167 L 789.444,137.173 L 792.374,137.22 L 795.26,137.332 L 798.172,137.492 L 801.045,137.72 L 803.941,138.001 L 806.821,138.34 L 809.666,138.748 L 812.555,139.205 L 815.425,139.71 L 818.332,140.247 L 821.248,140.805 L 824.184,141.373 L 827.164,141.93 L 830.182,142.454 L 833.209,142.939 L 836.293,143.363 L 839.39,143.716 L 842.459,144.012 L 845.554,144.247 L 848.619,144.435 L 851.697,144.574 L 854.757,144.674 L 857.8,144.747 L 860.834,144.799 L 863.848,144.841 L 866.879,144.865 L 869.901,144.876 L 872.918,144.876 L 875.934,144.867 L 878.943,144.852 L 881.952,144.832 L 884.957,144.809 L 887.959,144.784 L 890.96,144.759 L 893.961,144.734 L 896.951,144.714 L 899.946,144.697 L 902.943,144.682 L 905.938,144.67 L 908.935,144.66 L 911.932,144.651 L 914.932,144.642 L 917.933,144.633 L 920.937,144.621 L 923.94,144.608 L 926.931,144.6 L 929.818,144.659 L 932.569,144.853 L 935.429,145.124 L 938.352,145.434 L 941.786,145.517 L 944.859,145.531 L 947.922,145.505 L 950.91,145.487 L 953.901,145.474 L 956.664,145.597 L 957.604,146.387 L 956.885,146.961 L 957.094,148.554 L 957.339,150.879 L 957.436,153.476 L 957.505,156.378 L 957.502,159.255 L 957.526,162.297 L 957.563,165.318 L 957.616,168.344 L 957.698,171.391 L 957.817,174.448 L 957.92,177.426 L 958.028,180.429 L 958.168,183.476 L 958.304,186.471 L 958.44,189.467 L 958.58,192.47 L 958.713,195.456 L 958.819,198.412 L 958.927,201.41 L 959.034,204.408 L 959.142,207.406 L 959.242,210.393 L 959.319,213.354 L 959.392,216.344 L 959.456,219.33 L 959.513,222.316 L 959.56,225.3 L 959.588,228.27 L 959.609,231.256 L 959.617,234.234 L 959.614,237.215 L 959.6,240.198 L 959.571,243.172 L 959.535,246.16 L 959.489,249.144 L 959.439,252.136 L 959.385,255.129 L 959.327,258.123 L 959.269,261.122 L 959.215,264.128 L 959.173,267.148 L 959.144,270.169 L 959.133,273.2 L 959.135,276.22 L 959.155,279.251 L 959.195,282.283 L 959.255,285.316 L 959.343,288.36 L 959.447,291.385 L 959.578,294.426 L 959.736,297.467 L 959.92,300.504 L 960.132,303.543 L 960.352,306.55 L 960.582,309.557 L 960.813,312.553 L 961.022,315.513 L 961.196,318.451 L 961.357,321.423 L 961.53,324.432 L 961.743,327.488 L 962.007,330.556 L 962.31,333.608 L 962.587,336.567 L 962.823,339.493 L 963.014,342.411 L 963.172,345.349 L 963.297,348.289 L 963.389,351.232 L 963.46,354.193 L 963.532,357.193 L 963.597,360.182 L 963.654,363.168 L 963.707,366.161 L 963.765,369.166 L 963.831,372.181 L 963.906,375.194 L 963.989,378.205 L 964.075,381.211 L 964.166,384.217 L 964.259,387.219 L 964.353,390.22 L 964.449,393.221 L 964.547,396.222 L 964.627,399.194 L 964.683,402.152 L 964.692,405.075 L 964.667,408.015 L 964.63,410.997 L 964.592,413.993 L 964.557,417 L 964.526,420.005 L 964.496,423.006 L 964.463,426.002 L 964.42,428.984 L 964.367,431.968 L 964.332,434.998 L 964.349,438.083 L 964.46,441.234 L 964.666,444.378 L 964.916,447.445 L 965.063,450.295 L 965.121,453.139 L 965.11,456.015 L 965.07,458.966 L 965.035,461.973 L 965,464.942 L 975,465.058 L 975.034,462.091 L 975.069,459.099 L 975.109,456.05 L 975.119,452.926 L 975.049,449.772 L 974.883,446.63 L 974.644,443.717 L 974.453,440.874 L 974.348,438.028 L 974.332,435.113 L 974.366,432.143 L 974.419,429.128 L 974.462,426.112 L 974.495,423.108 L 974.526,420.109 L 974.557,417.115 L 974.591,414.122 L 974.63,411.118 L 974.666,408.101 L 974.692,405.041 L 974.681,401.964 L 974.624,398.923 L 974.542,395.897 L 974.444,392.902 L 974.349,389.906 L 974.254,386.909 L 974.161,383.915 L 974.071,380.923 L 973.985,377.932 L 973.903,374.945 L 973.829,371.96 L 973.763,368.976 L 973.706,365.982 L 973.652,362.977 L 973.595,359.963 L 973.529,356.954 L 973.457,353.955 L 973.384,350.918 L 973.288,347.864 L 973.158,344.81 L 972.993,341.757 L 972.791,338.687 L 972.544,335.633 L 972.261,332.618 L 971.97,329.699 L 971.719,326.789 L 971.513,323.86 L 971.343,320.879 L 971.178,317.86 L 970.997,314.808 L 970.783,311.783 L 970.553,308.797 L 970.326,305.821 L 970.108,302.844 L 969.901,299.898 L 969.722,296.946 L 969.568,293.996 L 969.441,291.042 L 969.339,288.07 L 969.253,285.117 L 969.194,282.151 L 969.155,279.184 L 969.135,276.215 L 969.133,273.234 L 969.143,270.266 L 969.172,267.287 L 969.214,264.307 L 969.267,261.315 L 969.325,258.315 L 969.383,255.31 L 969.437,252.304 L 969.488,249.296 L 969.534,246.281 L 969.57,243.27 L 969.6,240.244 L 969.614,237.227 L 969.617,234.208 L 969.609,231.186 L 969.588,228.173 L 969.558,225.142 L 969.511,222.127 L 969.454,219.114 L 969.389,216.101 L 969.316,213.094 L 969.237,210.057 L 969.136,207.046 L 969.028,204.049 L 968.92,201.051 L 968.813,198.053 L 968.703,195.012 L 968.569,192.004 L 968.43,189.013 L 968.294,186.016 L 968.157,183.017 L 968.022,180.071 L 967.914,177.078 L 967.809,174.059 L 967.695,171.12 L 967.614,168.17 L 967.562,165.196 L 967.526,162.218 L 967.502,159.26 L 967.502,156.137 L 967.427,153.041 L 967.263,149.644 L 966.767,146.015 L 965.453,141.804 L 961.639,137.237 L 957.09,135.606 L 953.858,135.474 L 950.849,135.487 L 947.837,135.505 L 944.901,135.531 L 941.973,135.519 L 939.408,135.49 L 936.365,135.167 L 933.252,134.876 L 930.016,134.661 L 926.904,134.6 L 923.896,134.608 L 920.898,134.621 L 917.902,134.633 L 914.904,134.642 L 911.903,134.651 L 908.9,134.66 L 905.897,134.67 L 902.893,134.683 L 899.89,134.697 L 896.885,134.714 L 893.875,134.734 L 890.876,134.76 L 887.878,134.785 L 884.88,134.809 L 881.884,134.832 L 878.894,134.852 L 875.903,134.867 L 872.919,134.876 L 869.936,134.876 L 866.958,134.866 L 863.989,134.842 L 861.004,134.8 L 858.039,134.75 L 855.083,134.68 L 852.146,134.584 L 849.23,134.454 L 846.307,134.275 L 843.419,134.058 L 840.516,133.78 L 837.651,133.456 L 834.79,133.065 L 831.893,132.602 L 829,132.1 L 826.082,131.555 L 823.127,130.983 L 820.149,130.414 L 817.156,129.861 L 814.117,129.328 L 811.08,128.848 L 807.984,128.408 L 804.906,128.048 L 801.83,127.751 L 798.72,127.507 L 795.642,127.339 L 792.532,127.221 L 789.463,127.173 L 786.399,127.168 L 783.33,127.202 L 780.288,127.278 L 777.223,127.38 L 774.185,127.522 L 771.14,127.69 L 768.088,127.888 L 765.061,128.12 L 762.019,128.376 L 759.008,128.661 L 755.997,128.961 L 752.988,129.276 L 749.992,129.605 L 746.968,129.946 L 743.972,130.31 L 740.971,130.685 L 737.976,131.075 L 734.991,131.475 L 731.989,131.886 L 729.008,132.311 L 726.022,132.744 L 723.036,133.187 L 720.06,133.64 L 717.072,134.102 L 714.102,134.575 L 711.126,135.053 L 708.152,135.54 L 705.185,136.034 L 702.185,136.538 L 699.227,137.06 L 696.266,137.586 L 693.321,138.113 L 690.371,138.637 L 687.413,139.159 L 684.458,139.683 L 681.503,140.207 L 678.549,140.732 L 675.596,141.257 L 672.643,141.782 L 669.69,142.306 L 666.737,142.83 L 663.785,143.353 L 660.831,143.875 L 657.879,144.396 L 654.925,144.917 L 651.972,145.436 L 649.019,145.955 L 646.065,146.473 L 643.11,146.991 L 640.143,147.511 L 637.179,148.038 L 634.246,148.565 L 631.303,149.083 L 628.358,149.593 L 625.405,150.098 L 622.454,150.601 L 619.502,151.099 L 616.549,151.594 L 613.598,152.086 L 610.642,152.572 L 607.689,153.056 L 604.734,153.535 L 601.778,154.011 L 598.824,154.482 L 595.87,154.949 L 592.919,155.409 L 589.962,155.863 L 587.007,156.311 L 584.052,156.752 L 581.092,157.186 L 578.134,157.615 L 575.173,158.038 L 572.214,158.455 L 569.254,158.865 L 566.29,159.269 L 563.327,159.667 L 560.362,160.059 L 557.398,160.446 L 554.432,160.827 L 551.463,161.201 L 548.496,161.571 L 545.525,161.936 L 542.557,162.296 L 539.586,162.65 L 536.613,162.999 L 533.641,163.345 L 530.666,163.686 L 527.694,164.024 L 524.719,164.356 L 521.743,164.685 L 518.76,165.011 L 515.775,165.338 L 512.813,165.664 L 509.841,165.979 L 506.863,166.288 L 503.886,166.593 L 500.906,166.893 L 497.931,167.191 L 494.95,167.482 L 491.97,167.771 L 488.991,168.056 L 486.008,168.338 L 483.031,168.616 L 480.048,168.889 L 477.066,169.159 L 474.085,169.426 L 471.101,169.688 L 468.124,169.947 L 465.139,170.2 L 462.156,170.45 L 459.173,170.696 L 456.187,170.938 L 453.207,171.178 L 450.22,171.411 L 447.235,171.642 L 444.25,171.87 L 441.261,172.094 L 438.279,172.315 L 435.289,172.532 L 432.302,172.747 L 429.315,172.958 L 426.325,173.167 L 423.34,173.374 L 420.349,173.576 L 417.36,173.777 L 414.371,173.976 L 411.38,174.172 L 408.393,174.366 L 405.402,174.556 L 402.412,174.745 L 399.422,174.931 L 396.431,175.114 L 393.444,175.296 L 390.452,175.473 L 387.461,175.649 L 384.47,175.822 L 381.478,175.992 L 378.489,176.161 L 375.495,176.326 L 372.504,176.49 L 369.511,176.652 L 366.518,176.813 L 363.526,176.971 L 360.532,177.127 L 357.539,177.282 L 354.545,177.436 L 351.551,177.588 L 348.557,177.739 L 345.562,177.888 L 342.568,178.036 L 339.573,178.184 L 336.578,178.33 L 333.584,178.476 L 330.588,178.62 L 327.594,178.764 L 324.598,178.906 L 321.604,179.048 L 318.61,179.188 L 315.614,179.327 L 312.619,179.465 L 309.623,179.602 L 306.628,179.739 L 303.632,179.874 L 300.636,180.009 L 297.64,180.143 L 294.644,180.277 L 291.647,180.411 L 288.651,180.544 L 285.654,180.676 L 282.657,180.809 L 279.66,180.941 L 276.664,181.074 L 273.667,181.206 L 270.67,181.337 L 267.673,181.469 L 264.676,181.601 L 261.68,181.732 L 258.683,181.863 L 255.686,181.994 L 252.688,182.125 L 249.691,182.256 L 246.692,182.387 L 243.693,182.519 L 240.694,182.653 L 237.693,182.788 L 234.693,182.925 L 231.693,183.064 L 228.695,183.205 L 225.697,183.347 L 222.7,183.489 L 219.703,183.631 L 216.706,183.774 L 213.709,183.918 L 210.713,184.061 L 207.717,184.204 L 204.721,184.347 L 201.726,184.489 L 198.73,184.631 L 195.733,184.772 L 192.727,184.913 L 189.726,185.06 L 186.712,185.211 L 183.715,185.37 L 180.718,185.532 L 177.728,185.693 L 174.736,185.851 L 171.74,186.007 Z" style="fill:rgb(0,0,0);fill-opacity:1;fill-rule:nonzero;stroke:none" />
<path d="M 281.048,256.306 L 280.632,259.277 L 280.278,262.388 L 280.073,265.643 L 279.948,268.745 L 279.859,271.796 L 279.827,274.892 L 279.808,277.911 L 279.812,280.95 L 279.838,283.984 L 279.873,287.001 L 279.941,290.053 L 280.015,293.064 L 280.105,296.088 L 280.207,299.107 L 280.316,302.115 L 280.44,305.138 L 280.566,308.141 L 280.699,311.148 L 280.836,314.152 L 280.974,317.152 L 281.114,320.151 L 281.252,323.145 L 281.387,326.136 L 281.515,329.124 L 281.641,332.116 L 281.744,335.08 L 281.84,338.062 L 281.916,341.03 L 281.967,343.988 L 282.005,346.966 L 281.996,349.886 L 281.971,352.859 L 281.915,355.806 L 281.828,358.753 L 281.726,361.725 L 281.593,364.67 L 281.446,367.645 L 281.275,370.596 L 281.061,373.513 L 280.823,376.466 L 280.512,379.311 L 280.17,382.253 L 279.787,385.151 L 279.371,388.07 L 278.937,391.013 L 278.502,393.989 L 278.103,397.038 L 277.787,400.173 L 277.861,403.83 L 278.189,407.162 L 280.842,412.003 L 284.014,414.856 L 288.783,416.629 L 292.805,416.977 L 296.271,416.879 L 299.434,416.665 L 302.403,416.477 L 305.361,416.311 L 308.384,416.125 L 311.384,415.936 L 314.313,415.792 L 317.268,415.672 L 320.199,415.592 L 323.195,415.512 L 326.191,415.434 L 329.171,415.368 L 332.212,415.274 L 335.276,415.14 L 338.268,415.011 L 341.262,414.884 L 344.244,414.767 L 347.218,414.665 L 350.182,414.583 L 353.223,414.474 L 356.239,414.354 L 359.233,414.238 L 362.228,414.123 L 365.221,414.011 L 368.212,413.903 L 371.206,413.798 L 374.194,413.699 L 377.187,413.603 L 380.175,413.514 L 383.165,413.43 L 386.158,413.349 L 389.144,413.277 L 392.137,413.208 L 395.124,413.146 L 398.112,413.092 L 401.105,413.041 L 404.089,412.999 L 407.082,412.962 L 410.069,412.933 L 413.059,412.909 L 416.052,412.89 L 419.039,412.878 L 422.033,412.87 L 425.022,412.869 L 428.012,412.873 L 431.007,412.881 L 433.994,412.896 L 436.99,412.913 L 439.984,412.934 L 442.982,412.956 L 445.982,412.979 L 448.993,412.995 L 449.974,413 L 450.026,403 L 449.045,402.995 L 446.056,402.979 L 443.057,402.957 L 440.054,402.934 L 437.048,402.913 L 434.045,402.896 L 431.032,402.881 L 428.027,402.873 L 425.017,402.869 L 422.006,402.87 L 419,402.878 L 415.986,402.89 L 412.981,402.91 L 409.97,402.933 L 406.958,402.963 L 403.951,403 L 400.935,403.042 L 397.929,403.093 L 394.918,403.148 L 391.907,403.211 L 388.901,403.28 L 385.889,403.353 L 382.884,403.434 L 379.876,403.518 L 376.868,403.608 L 373.864,403.704 L 370.854,403.804 L 367.852,403.91 L 364.848,404.018 L 361.845,404.13 L 358.844,404.245 L 355.842,404.362 L 352.863,404.48 L 349.908,404.587 L 346.874,404.67 L 343.852,404.775 L 340.839,404.893 L 337.838,405.02 L 334.835,405.149 L 331.905,405.279 L 328.949,405.37 L 325.93,405.437 L 322.928,405.516 L 319.927,405.596 L 316.86,405.68 L 313.82,405.804 L 310.756,405.956 L 307.768,406.144 L 304.802,406.327 L 301.769,406.497 L 298.75,406.689 L 295.927,406.885 L 293.397,406.994 L 291.43,406.986 L 290.413,407.172 L 288.975,406.185 L 288.137,406.146 L 287.856,403.509 L 287.737,401.169 L 288.019,398.334 L 288.397,395.434 L 288.83,392.473 L 289.271,389.479 L 289.701,386.458 L 290.103,383.408 L 290.453,380.39 L 290.79,377.271 L 291.035,374.243 L 291.258,371.175 L 291.434,368.137 L 291.583,365.119 L 291.72,362.07 L 291.824,359.046 L 291.913,355.995 L 291.971,352.943 L 291.996,349.916 L 292.004,346.836 L 291.965,343.815 L 291.913,340.773 L 291.835,337.743 L 291.738,334.729 L 291.632,331.696 L 291.506,328.694 L 291.377,325.687 L 291.242,322.685 L 291.103,319.685 L 290.964,316.69 L 290.825,313.697 L 290.689,310.707 L 290.557,307.72 L 290.431,304.728 L 290.309,301.756 L 290.202,298.768 L 290.101,295.79 L 290.012,292.817 L 289.938,289.83 L 289.872,286.883 L 289.837,283.901 L 289.812,280.935 L 289.808,277.974 L 289.826,274.993 L 289.854,272.089 L 289.941,269.143 L 290.055,266.249 L 290.214,263.516 L 290.536,260.665 L 290.952,257.694 Z" style="fill:rgb(0,0,0);fill-opacity:1;fill-rule:nonzero;stroke:none" />
<path d="M 286.465,261.978 L 289.452,261.699 L 292.364,261.475 L 295.204,261.347 L 298.054,261.304 L 300.973,261.305 L 303.811,261.399 L 306.746,261.531 L 309.666,261.706 L 312.586,261.924 L 315.531,262.17 L 318.428,262.463 L 321.352,262.793 L 324.283,263.151 L 327.207,263.539 L 330.145,263.949 L 333.066,264.384 L 335.985,264.845 L 338.92,265.325 L 341.844,265.823 L 344.774,266.337 L 347.703,266.866 L 350.619,267.412 L 353.558,267.968 L 356.491,268.531 L 359.43,269.099 L 362.373,269.669 L 365.325,270.237 L 368.299,270.794 L 371.302,271.326 L 374.341,271.815 L 377.345,272.274 L 380.527,272.634 L 383.608,272.92 L 386.756,273.116 L 389.929,273.205 L 393.034,273.223 L 396.301,273.072 L 399.462,272.813 L 402.634,272.429 L 405.816,271.897 L 408.909,271.279 L 412.077,270.472 L 415.141,269.557 L 418.11,268.589 L 421.014,267.596 L 423.85,266.628 L 426.614,265.745 L 429.34,264.977 L 432.065,264.326 L 434.735,263.853 L 437.459,263.511 L 438.818,264.03 L 438.714,264.856 L 439.33,266.279 L 439.482,267.798 L 439.78,270.218 L 439.972,272.906 L 440.042,275.669 L 440.082,278.601 L 440.091,281.547 L 440.168,284.655 L 440.257,287.677 L 440.286,290.581 L 440.334,293.608 L 440.411,296.654 L 440.518,299.703 L 440.632,302.713 L 440.71,305.655 L 440.784,308.646 L 440.858,311.643 L 440.944,314.663 L 441.036,317.671 L 441.111,320.642 L 441.182,323.635 L 441.257,326.64 L 441.337,329.648 L 441.421,332.654 L 441.514,335.665 L 441.61,338.671 L 441.709,341.673 L 441.811,344.676 L 441.916,347.68 L 442.028,350.689 L 442.149,353.701 L 442.276,356.709 L 442.412,359.721 L 442.557,362.732 L 442.715,365.748 L 442.893,368.776 L 443.083,371.791 L 443.295,374.818 L 443.534,377.852 L 443.782,380.861 L 444.027,383.848 L 444.236,386.788 L 444.395,389.7 L 444.503,392.612 L 444.593,395.576 L 444.69,398.585 L 444.788,401.583 L 444.886,404.582 L 444.984,407.581 L 445.003,408.163 L 454.997,407.837 L 454.978,407.254 L 454.88,404.256 L 454.783,401.258 L 454.685,398.26 L 454.588,395.272 L 454.496,392.239 L 454.38,389.155 L 454.211,386.076 L 453.994,383.031 L 453.748,380.038 L 453.503,377.067 L 453.27,374.12 L 453.063,371.162 L 452.876,368.189 L 452.702,365.226 L 452.546,362.251 L 452.402,359.269 L 452.267,356.287 L 452.141,353.3 L 452.021,350.317 L 451.91,347.33 L 451.805,344.338 L 451.704,341.344 L 451.605,338.349 L 451.509,335.359 L 451.417,332.373 L 451.333,329.381 L 451.254,326.391 L 451.179,323.398 L 451.108,320.392 L 451.032,317.365 L 450.94,314.376 L 450.855,311.399 L 450.781,308.397 L 450.707,305.39 L 450.625,302.334 L 450.512,299.349 L 450.407,296.402 L 450.333,293.449 L 450.286,290.478 L 450.253,287.381 L 450.165,284.406 L 450.091,281.516 L 450.081,278.462 L 450.038,275.394 L 449.944,272.16 L 449.688,268.865 L 449.174,265.339 L 447.85,261.043 L 445.326,257.354 L 440.72,254.213 L 436.189,253.592 L 432.961,254.011 L 429.726,254.603 L 426.617,255.355 L 423.57,256.22 L 420.619,257.164 L 417.777,258.135 L 415.004,259.084 L 412.269,259.979 L 409.586,260.787 L 406.943,261.475 L 404.153,262.036 L 401.419,262.503 L 398.635,262.847 L 395.817,263.084 L 393.091,263.223 L 390.197,263.208 L 387.371,263.135 L 384.531,262.963 L 381.637,262.695 L 378.856,262.389 L 375.929,261.942 L 373.044,261.479 L 370.139,260.965 L 367.215,260.418 L 364.275,259.852 L 361.328,259.281 L 358.376,258.71 L 355.417,258.142 L 352.46,257.583 L 349.479,257.025 L 346.503,256.488 L 343.523,255.965 L 340.533,255.456 L 337.546,254.968 L 334.538,254.492 L 331.525,254.044 L 328.521,253.626 L 325.496,253.225 L 322.472,252.856 L 319.433,252.514 L 316.361,252.204 L 313.327,251.952 L 310.263,251.724 L 307.194,251.541 L 304.135,251.405 L 300.976,251.305 L 297.895,251.305 L 294.746,251.357 L 291.593,251.505 L 288.522,251.743 L 285.535,252.022 Z" style="fill:rgb(0,0,0);fill-opacity:1;fill-rule:nonzero;stroke:none" />
<path d="M 688.199,188.752 L 686.25,191.032 L 684.295,193.348 L 682.349,195.709 L 680.472,197.843 L 678.509,200.006 L 676.482,202.293 L 674.493,204.532 L 672.503,206.763 L 670.508,208.993 L 668.508,211.223 L 666.505,213.46 L 664.503,215.696 L 662.502,217.932 L 660.498,220.184 L 658.502,222.433 L 656.502,224.725 L 654.529,226.989 L 652.557,229.26 L 650.596,231.492 L 648.619,233.728 L 646.659,235.837 L 644.631,237.978 L 642.594,240.041 L 640.528,242.02 L 638.384,244.019 L 636.278,245.787 L 634.015,247.634 L 631.756,249.359 L 629.449,251.002 L 627.047,252.654 L 624.667,254.164 L 622.147,255.752 L 619.631,257.307 L 617.207,258.651 L 614.654,259.996 L 612.152,261.158 L 608.445,265.386 L 607.79,271.483 L 608.251,274.844 L 608.8,277.966 L 609.333,280.933 L 609.732,283.73 L 609.991,286.483 L 610.235,289.409 L 610.532,292.465 L 611.146,295.848 L 612.05,299.162 L 613.462,302.552 L 615.257,305.69 L 617.062,308.425 L 618.826,310.975 L 620.446,313.4 L 621.981,315.831 L 623.474,318.309 L 624.941,320.834 L 626.304,323.345 L 627.687,325.95 L 629.009,328.548 L 630.269,331.157 L 631.49,333.801 L 632.575,336.402 L 633.631,339.092 L 634.565,341.754 L 635.386,344.432 L 636.157,347.195 L 636.799,349.921 L 637.432,352.779 L 637.998,355.618 L 638.53,358.498 L 639.042,361.409 L 639.52,364.315 L 640.004,367.273 L 640.487,370.231 L 640.974,373.195 L 641.492,376.193 L 642.302,379.471 L 644.415,383.4 L 648.431,386.646 L 653.334,387.906 L 657.031,388.048 L 660.268,387.98 L 663.191,387.959 L 666.128,387.976 L 669.131,387.99 L 672.139,387.999 L 675.154,388 L 678.154,388 L 681.155,388 L 684.155,388 L 687.155,388 L 690.155,388 L 693.155,388 L 696.155,388 L 699.155,388 L 702.155,388 L 705.155,388 L 708.155,388 L 711.155,388 L 714.155,388 L 717.155,388 L 720.155,388 L 722,388 L 722,378 L 720.155,378 L 717.155,378 L 714.155,378 L 711.155,378 L 708.155,378 L 705.155,378 L 702.155,378 L 699.155,378 L 696.155,378 L 693.155,378 L 690.155,378 L 687.155,378 L 684.155,378 L 681.155,378 L 678.155,378 L 675.155,378 L 672.17,377.999 L 669.179,377.99 L 666.182,377.976 L 663.118,377.96 L 660.042,377.983 L 657.28,378.051 L 654.98,378.043 L 653.964,378.316 L 652.982,378.242 L 652,377.031 L 651.346,374.49 L 650.842,371.576 L 650.357,368.619 L 649.873,365.655 L 649.387,362.692 L 648.891,359.677 L 648.363,356.68 L 647.804,353.659 L 647.195,350.615 L 646.529,347.615 L 645.788,344.503 L 644.943,341.487 L 643.997,338.432 L 642.938,335.435 L 641.799,332.54 L 640.568,329.606 L 639.272,326.804 L 637.92,324.01 L 636.52,321.262 L 635.089,318.568 L 633.586,315.808 L 632.038,313.145 L 630.433,310.485 L 628.761,307.845 L 627.047,305.282 L 625.396,302.899 L 623.884,300.633 L 622.645,298.595 L 621.683,296.475 L 620.975,294.009 L 620.485,291.495 L 620.2,288.579 L 619.945,285.526 L 619.63,282.306 L 619.175,279.165 L 618.647,276.226 L 618.152,273.44 L 617.771,270.859 L 616.741,270.968 L 616.383,270.219 L 619.318,268.842 L 622.073,267.388 L 624.89,265.812 L 627.477,264.212 L 630.033,262.602 L 632.717,260.892 L 635.257,259.143 L 637.834,257.3 L 640.34,255.379 L 642.725,253.431 L 645.205,251.331 L 647.449,249.237 L 649.713,247.064 L 651.891,244.855 L 653.988,242.64 L 656.111,240.351 L 658.107,238.093 L 660.107,235.818 L 662.069,233.558 L 664.037,231.299 L 665.982,229.07 L 667.969,226.831 L 669.953,224.601 L 671.953,222.366 L 673.954,220.131 L 675.954,217.898 L 677.959,215.662 L 679.965,213.42 L 681.969,211.173 L 683.965,208.926 L 685.917,206.723 L 687.985,204.442 L 690.067,202.068 L 691.936,199.798 L 693.852,197.529 L 695.801,195.248 Z" style="fill:rgb(0,0,0);fill-opacity:1;fill-rule:nonzero;stroke:none" />
<path d="M 688.309,195.373 L 690.333,197.588 L 692.429,199.823 L 694.622,202.049 L 696.802,204.204 L 698.973,206.322 L 701.067,208.404 L 703.124,210.5 L 705.108,212.61 L 707.031,214.755 L 708.944,216.959 L 710.814,219.192 L 712.66,221.463 L 714.507,223.773 L 716.345,226.104 L 718.218,228.464 L 720.109,230.824 L 722.065,233.194 L 724.059,235.537 L 726.153,237.869 L 728.323,240.148 L 730.479,242.342 L 732.844,244.543 L 735.135,246.602 L 737.536,248.637 L 739.92,250.589 L 742.289,252.497 L 744.717,254.389 L 747.088,256.234 L 749.402,258.07 L 751.624,259.916 L 753.816,261.813 L 755.957,263.751 L 758.106,265.748 L 760.341,267.797 L 762.731,269.859 L 765.34,271.864 L 768.23,273.721 L 771.33,275.315 L 771.593,276.333 L 771.109,277.046 L 770.805,278.732 L 770.254,280.958 L 769.398,283.104 L 768.315,285.74 L 767.149,288.3 L 765.952,291.339 L 764.896,294.335 L 764.069,297.794 L 763.47,300.933 L 763.028,304.171 L 762.622,307.126 L 762.191,310.047 L 761.688,312.851 L 761.158,315.797 L 760.663,318.842 L 760.213,321.878 L 759.787,324.88 L 759.352,327.816 L 758.855,330.641 L 758.236,333.311 L 757.446,335.815 L 756.474,338.267 L 755.33,340.687 L 754.03,342.93 L 752.541,345.328 L 750.968,347.658 L 749.294,350.14 L 747.614,352.658 L 745.944,355.303 L 744.344,358.052 L 742.851,360.979 L 741.533,364.028 L 740.379,366.968 L 739.318,369.934 L 738.221,372.167 L 736.926,373.786 L 735.705,374.213 L 733.754,374.937 L 731.571,375.416 L 728.742,376.056 L 725.833,376.703 L 722.686,377.573 L 720.558,378.212 L 723.442,387.788 L 725.371,387.206 L 728.004,386.465 L 730.951,385.809 L 733.974,385.123 L 737.615,384.161 L 741.199,382.568 L 744.991,379.699 L 747.244,376.479 L 748.735,373.298 L 749.691,370.613 L 750.725,367.966 L 751.77,365.501 L 752.99,363.076 L 754.404,360.637 L 755.934,358.206 L 757.583,355.733 L 759.265,353.241 L 761.042,350.594 L 762.713,347.891 L 764.389,344.923 L 765.787,341.909 L 766.999,338.773 L 767.984,335.545 L 768.705,332.367 L 769.244,329.282 L 769.688,326.283 L 770.105,323.344 L 770.534,320.445 L 771,317.567 L 771.532,314.608 L 772.084,311.505 L 772.528,308.49 L 772.94,305.501 L 773.296,302.793 L 773.814,300.036 L 774.331,297.649 L 775.264,294.983 L 776.254,292.435 L 777.568,289.532 L 778.761,286.616 L 780.012,283.145 L 780.774,279.516 L 780.941,275.22 L 779.36,270.034 L 775.844,266.392 L 773.589,265.278 L 771.414,263.92 L 769.256,262.281 L 767.1,260.428 L 764.912,258.421 L 762.665,256.335 L 760.357,254.249 L 758.01,252.221 L 755.616,250.235 L 753.229,248.342 L 750.864,246.502 L 748.559,244.707 L 746.255,242.852 L 743.996,241.003 L 741.818,239.163 L 739.645,237.211 L 737.611,235.332 L 735.56,233.247 L 733.59,231.184 L 731.673,229.054 L 729.777,226.828 L 727.913,224.571 L 726.052,222.249 L 724.196,219.91 L 722.318,217.529 L 720.418,215.154 L 718.478,212.769 L 716.495,210.403 L 714.474,208.076 L 712.39,205.756 L 710.262,203.497 L 708.116,201.31 L 705.955,199.163 L 703.831,197.091 L 701.743,195.028 L 699.723,192.982 L 697.715,190.841 L 695.691,188.627 Z" style="fill:rgb(0,0,0);fill-opacity:1;fill-rule:nonzero;stroke:none" />
<path d="M 446.402,127.409 L 446.402,127.409 L 448.43,125.199 L 450.475,123.003 L 452.716,121.01 L 454.958,119.016 L 457.388,117.257 L 459.85,115.543 L 462.344,113.875 L 464.89,112.289 L 467.437,110.702 L 470.011,109.162 L 472.597,107.642 L 475.184,106.122 L 477.929,104.912 L 480.684,103.725 L 483.454,102.572 L 486.304,101.635 L 489.153,100.698 L 492.017,99.8035 L 494.899,98.9702 L 497.781,98.137 L 500.677,97.3557 L 503.579,96.5928 L 506.484,95.8435 L 509.414,95.1995 L 512.344,94.5556 L 515.279,93.9358 L 518.218,93.3318 L 521.16,92.748 L 524.12,92.259 L 527.08,91.7701 L 530.05,91.3435 L 533.02,90.9253 L 536.004,90.6151 L 538.993,90.3504 L 541.989,90.194 L 544.988,90.2442 L 547.956,90.6718 L 550.864,91.3958 L 553.64,92.5267 L 556.279,93.9498 L 558.748,95.6466 L 560.987,97.6358 L 562.914,99.9337 L 564.467,102.501 L 565.544,105.293 L 566.189,108.208 L 566.485,111.188 L 566.5,114.188 L 566.201,117.172 L 565.748,120.136 L 565.162,123.077 L 564.466,125.995 L 563.619,128.873 L 562.686,131.724 L 561.695,134.555 L 560.641,137.363 L 559.486,140.132 L 558.322,142.897 L 557.544,145.792 L 557.386,148.773 L 557.831,151.728 L 558.791,154.561 L 560.161,157.223 L 561.862,159.691 L 563.798,161.98 L 565.914,164.106 L 568.179,166.072 L 570.548,167.913 L 572.992,169.652 L 575.479,171.328 L 577.99,172.97 L 580.498,174.616 L 582.962,176.327 L 585.336,178.161 L 587.545,180.187 L 589.485,182.468 L 591.001,185.048 L 591.821,187.921 L 591.907,190.907 L 591.371,193.849 L 590.363,196.669 L 589.083,199.38 L 587.64,202.01 L 586.106,204.587 L 584.595,207.179 L 583.223,209.846 L 581.883,212.53 L 580.305,215.077 L 578.478,217.454 L 576.477,219.687 L 574.35,221.802 L 572.141,223.831 L 569.845,225.761 L 567.505,227.639 L 565.139,229.482 L 562.747,231.294 L 560.349,233.096 L 557.935,234.877 L 555.501,236.631 L 553.027,238.328 L 550.499,239.943 L 547.93,241.491 L 545.212,242.75 L 542.378,243.73 L 539.427,244.219 L 536.434,244.394 L 533.435,244.359 L 530.47,243.94 L 527.552,243.248 L 524.717,242.275 L 521.984,241.042 L 519.346,239.617 L 516.787,238.052 L 514.282,236.401 L 511.828,234.676 L 509.407,232.904 L 507.026,231.08 L 504.673,229.219 L 502.342,227.33 L 500.036,225.412 L 497.742,223.478 L 495.471,221.518 L 493.213,219.543 L 490.978,217.541 L 488.781,215.499 L 486.596,213.443 L 484.428,211.37 L 482.274,209.281 L 480.155,207.158 L 478.148,204.93 L 476.222,202.629 L 474.324,200.306 L 472.469,197.948 L 470.652,195.562 L 468.865,193.152 L 467.175,190.674 L 465.583,188.131 L 464.022,185.569 L 462.51,182.978 L 461.072,180.346 L 459.655,177.702 L 458.267,175.042 L 456.93,172.357 L 455.614,169.661 L 454.362,166.935 L 453.23,164.157 L 452.134,161.364 L 451.073,158.558 L 450.056,155.736 L 449.08,152.899 L 448.203,150.03 L 447.389,147.143 L 446.627,144.242 L 445.927,141.325 L 445.302,138.391 L 444.876,135.422 L 444.983,132.434 L 445.692,129.528 L 446.402,127.409 Z " style="fill:rgb(85,170,127);fill-opacity:1;fill-rule:evenodd;stroke:none" />
<path d="M 450.086,130.79 L 452.115,128.579 L 454.134,126.411 L 456.039,124.746 L 458.281,122.752 L 460.32,121.308 L 462.708,119.646 L 465.124,118.031 L 467.535,116.532 L 470.081,114.946 L 472.577,113.454 L 475.132,111.952 L 477.717,110.432 L 479.945,109.487 L 482.662,108.317 L 485.376,107.187 L 487.865,106.385 L 490.715,105.448 L 493.508,104.576 L 496.288,103.773 L 499.17,102.94 L 501.98,102.183 L 504.85,101.428 L 507.733,100.685 L 510.487,100.083 L 513.417,99.439 L 516.312,98.828 L 519.224,98.2294 L 522.133,97.6525 L 524.935,97.1921 L 527.895,96.7032 L 530.761,96.2926 L 533.717,95.8765 L 536.521,95.5883 L 539.434,95.3309 L 542.249,95.1872 L 544.904,95.2435 L 547.243,95.6208 L 549.656,96.2477 L 551.754,97.1573 L 553.905,98.3504 L 555.917,99.7677 L 557.666,101.374 L 559.082,103.146 L 560.188,105.089 L 560.88,107.093 L 561.307,109.288 L 561.509,111.681 L 561.5,114.213 L 561.226,116.674 L 560.805,119.38 L 560.258,122.101 L 559.603,124.836 L 558.822,127.46 L 557.934,130.17 L 556.976,132.902 L 555.96,135.606 L 554.871,138.209 L 553.714,140.956 L 552.715,144.494 L 552.393,148.508 L 552.887,152.472 L 554.055,156.165 L 555.716,159.512 L 557.745,162.528 L 559.98,165.209 L 562.37,167.633 L 564.901,169.848 L 567.48,171.861 L 570.093,173.726 L 572.685,175.475 L 575.254,177.155 L 577.754,178.796 L 580.11,180.434 L 582.28,182.118 L 584.164,183.872 L 585.676,185.708 L 586.69,187.581 L 587.013,189.294 L 586.909,191.052 L 586.452,192.952 L 585.655,194.986 L 584.562,197.246 L 583.257,199.604 L 581.81,202.029 L 580.275,204.662 L 578.777,207.559 L 577.41,210.297 L 576.055,212.444 L 574.514,214.406 L 572.753,216.351 L 570.825,218.256 L 568.759,220.148 L 566.627,221.934 L 564.375,223.74 L 562.066,225.537 L 559.728,227.309 L 557.346,229.098 L 554.966,230.854 L 552.578,232.575 L 550.2,234.204 L 547.807,235.729 L 545.35,237.208 L 543.11,238.212 L 540.744,239.004 L 538.61,239.286 L 536.142,239.402 L 533.493,239.359 L 531.17,238.989 L 528.707,238.383 L 526.338,237.546 L 524.041,236.485 L 521.723,235.218 L 519.394,233.786 L 517.034,232.227 L 514.703,230.586 L 512.361,228.87 L 510.066,227.111 L 507.776,225.298 L 505.49,223.445 L 503.233,221.567 L 500.965,219.655 L 498.738,217.733 L 496.505,215.779 L 494.314,213.817 L 492.185,211.836 L 490.023,209.802 L 487.882,207.755 L 485.755,205.692 L 483.695,203.626 L 481.862,201.582 L 480.056,199.42 L 478.196,197.143 L 476.399,194.857 L 474.63,192.532 L 472.882,190.174 L 471.305,187.856 L 469.822,185.479 L 468.292,182.967 L 466.829,180.459 L 465.46,177.949 L 464.062,175.34 L 462.699,172.728 L 461.406,170.129 L 460.107,167.467 L 458.905,164.848 L 457.86,162.27 L 456.789,159.538 L 455.75,156.79 L 454.76,154.04 L 453.808,151.272 L 452.985,148.569 L 452.201,145.786 L 451.463,142.971 L 450.789,140.158 L 450.192,137.349 L 449.826,134.712 L 449.98,132.612 L 450.549,130.712 L 451.143,128.999 L 441.662,125.82 L 440.834,128.343 L 439.986,132.255 L 439.927,136.133 L 440.412,139.432 L 441.065,142.491 L 441.791,145.512 L 442.577,148.501 L 443.422,151.492 L 444.352,154.526 L 445.352,157.432 L 446.396,160.326 L 447.48,163.191 L 448.6,166.044 L 449.818,169.022 L 451.121,171.854 L 452.454,174.584 L 453.834,177.356 L 455.248,180.064 L 456.684,182.743 L 458.192,185.498 L 459.752,188.172 L 461.345,190.784 L 463.045,193.492 L 464.849,196.129 L 466.674,198.591 L 468.54,201.04 L 470.452,203.469 L 472.388,205.839 L 474.433,208.277 L 476.616,210.689 L 478.793,212.87 L 480.973,214.985 L 483.17,217.084 L 485.377,219.161 L 487.643,221.266 L 489.921,223.306 L 492.204,225.303 L 494.519,227.301 L 496.839,229.256 L 499.194,231.215 L 501.57,233.139 L 503.985,235.05 L 506.453,236.938 L 508.953,238.767 L 511.53,240.576 L 514.179,242.319 L 516.969,244.016 L 519.927,245.599 L 523.095,247.005 L 526.398,248.112 L 529.77,248.891 L 533.378,249.359 L 536.726,249.385 L 540.244,249.151 L 544.013,248.455 L 547.313,247.287 L 550.51,245.774 L 553.192,244.156 L 555.854,242.452 L 558.425,240.687 L 560.904,238.9 L 563.351,237.093 L 565.767,235.279 L 568.211,233.427 L 570.636,231.538 L 573.062,229.588 L 575.522,227.514 L 577.875,225.348 L 580.202,223.024 L 582.442,220.501 L 584.556,217.711 L 586.357,214.763 L 587.67,212.133 L 588.915,209.696 L 590.402,207.145 L 592.024,204.415 L 593.605,201.514 L 595.071,198.352 L 596.29,194.745 L 596.905,190.762 L 596.629,186.549 L 595.311,182.515 L 593.293,179.229 L 590.925,176.503 L 588.392,174.204 L 585.814,172.221 L 583.242,170.437 L 580.727,168.785 L 578.274,167.182 L 575.891,165.578 L 573.615,163.964 L 571.457,162.297 L 569.457,160.578 L 567.616,158.752 L 565.979,156.853 L 564.607,154.935 L 563.526,152.956 L 562.775,150.983 L 562.379,149.038 L 562.373,147.089 L 562.93,144.838 L 564.101,142.056 L 565.322,139.12 L 566.414,136.208 L 567.439,133.278 L 568.415,130.286 L 569.33,127.155 L 570.066,124.053 L 570.69,120.892 L 571.176,117.671 L 571.5,114.162 L 571.46,110.694 L 571.071,107.129 L 570.209,103.492 L 568.745,99.9126 L 566.745,96.7215 L 564.308,93.8979 L 561.58,91.5254 L 558.652,89.5491 L 555.527,87.8962 L 552.072,86.5439 L 548.669,85.7229 L 545.071,85.2449 L 541.728,85.2008 L 538.551,85.3699 L 535.487,85.6419 L 532.324,85.9741 L 529.339,86.3943 L 526.265,86.8369 L 523.305,87.3258 L 520.187,87.8436 L 517.211,88.4342 L 514.246,89.0437 L 511.271,89.6721 L 508.34,90.3161 L 505.235,91.002 L 502.307,91.7572 L 499.375,92.5283 L 496.392,93.3337 L 493.51,94.1669 L 490.527,95.0308 L 487.592,95.9478 L 484.742,96.8847 L 481.531,97.9559 L 478.706,99.1328 L 475.912,100.336 L 472.65,101.811 L 470.063,103.332 L 467.445,104.871 L 464.792,106.458 L 462.246,108.045 L 459.565,109.719 L 456.993,111.44 L 454.457,113.206 L 451.635,115.28 L 449.393,117.274 L 446.816,119.596 L 444.746,121.819 L 442.718,124.029 Z" style="fill:rgb(0,0,0);fill-opacity:1;fill-rule:nonzero;stroke:none" />
<path d="M 350.331,302.603 L 346.912,306.296 L 343.505,310.19 L 340.182,313.815 L 336.777,317.378 L 333.297,320.775 L 329.703,324.016 L 325.98,327.164 L 322.142,330.333 L 318.236,333.896 L 315.049,340.249 L 316.074,348.285 L 320.333,354.046 L 324.651,357.826 L 328.846,361.01 L 332.997,363.973 L 336.94,366.869 L 340.769,369.828 L 344.585,372.874 L 349.449,375.779 L 356.872,376.494 L 363.679,373.4 L 368.251,369.359 L 371.899,365.326 L 375.185,361.221 L 378.224,356.899 L 381.03,352.577 L 383.696,348.226 L 386.225,343.715 L 388.613,339.226 L 390.893,334.651 L 393.021,329.934 L 394.899,324.991 L 395.933,319.106 L 393.47,311.752 L 386.843,307.063 L 381.057,305.253 L 375.938,303.991 L 370.987,302.819 L 365.577,301.998 L 360.337,301.449 L 355.214,301.015 L 346.912,306.296 L 354.25,313.09 L 354.371,310.979 L 359.305,311.396 L 364.108,311.889 L 368.684,312.55 L 373.553,313.702 L 378.237,314.848 L 382.134,315.884 L 384.387,315.936 L 386.055,317.548 L 385.544,321.456 L 383.902,325.829 L 381.941,330.194 L 379.784,334.531 L 377.499,338.831 L 375.167,343.004 L 372.638,347.138 L 370.034,351.162 L 367.368,354.984 L 364.456,358.648 L 361.47,362.01 L 358.746,364.701 L 356.936,366.494 L 354.497,367.147 L 350.822,365.058 L 346.882,361.915 L 342.858,358.808 L 338.804,355.832 L 334.878,353.034 L 331.159,350.233 L 327.94,347.555 L 325.75,345.758 L 324.256,344.153 L 324.984,341.276 L 328.51,338.044 L 332.44,334.797 L 336.406,331.437 L 340.286,327.927 L 344.008,324.286 L 347.557,320.57 L 351.033,316.772 L 354.25,313.09 L 357.669,309.397 Z" style="fill:rgb(85,170,127);fill-opacity:1;fill-rule:nonzero;stroke:none" />
</svg>