<?xml version="1.0" encoding="UTF-8" standalone="no"?>
<!-- Created with VPaint (http://www.vpaint.org/) -->

<!DOCTYPE svg PUBLIC "-//W3C//DTD SVG 1.1//EN"
  "http://www.w3.org/Graphics/SVG/1.1/DTD/svg11.dtd">
<svg xmlns="http://www.w3.org/2000/svg">
<path d="M 261.898,140.911 L 261.898,140.911 L 258.909,140.832 L 255.917,140.859 L 252.924,140.98 L 249.934,141.184 L 246.947,141.457 L 243.965,141.791 L 240.988,142.182 L 238.018,142.622 L 235.056,143.108 L 232.101,143.639 L 229.156,144.213 L 226.22,144.832 L 223.294,145.494 L 220.378,146.201 L 217.474,146.953 L 214.583,147.753 L 211.707,148.606 L 208.847,149.513 L 206.007,150.48 L 203.19,151.512 L 200.4,152.615 L 197.641,153.792 L 194.916,155.046 L 192.229,156.38 L 189.586,157.8 L 186.992,159.307 L 184.448,160.897 L 181.959,162.572 L 179.528,164.33 L 177.159,166.171 L 174.855,168.091 L 172.614,170.086 L 170.44,172.154 L 168.335,174.291 L 166.301,176.496 L 164.34,178.767 L 162.455,181.1 L 160.648,183.495 L 158.923,185.95 L 157.285,188.463 L 155.737,191.033 L 154.287,193.659 L 152.944,196.342 L 151.721,199.081 L 150.632,201.876 L 149.695,204.726 L 148.926,207.626 L 148.349,210.57 L 147.982,213.547 L 147.842,216.544 L 147.933,219.542 L 148.248,222.526 L 148.777,225.479 L 149.516,228.386 L 150.475,231.229 L 151.67,233.98 L 153.114,236.61 L 154.801,239.091 L 156.715,241.401 L 158.827,243.531 L 161.104,245.484 L 163.512,247.274 L 166.019,248.921 L 168.602,250.447 L 171.243,251.87 L 173.93,253.205 L 176.652,254.466 L 179.402,255.663 L 182.175,256.808 L 184.967,257.906 L 187.774,258.964 L 190.596,259.985 L 193.429,260.97 L 196.274,261.921 L 199.132,262.836 L 202,263.713 L 204.881,264.551 L 207.773,265.347 L 210.677,266.1 L 213.593,266.807 L 216.519,267.468 L 219.456,268.081 L 222.402,268.646 L 225.357,269.163 L 228.321,269.631 L 231.291,270.052 L 234.267,270.427 L 237.249,270.758 L 240.235,271.049 L 243.224,271.302 L 246.216,271.519 L 249.211,271.705 L 252.206,271.86 L 255.204,271.986 L 258.202,272.082 L 261.202,272.145 L 264.202,272.169 L 267.201,272.15 L 270.201,272.079 L 273.198,271.951 L 276.192,271.758 L 279.18,271.494 L 282.161,271.156 L 285.132,270.742 L 288.092,270.251 L 291.038,269.683 L 293.968,269.041 L 296.881,268.323 L 299.774,267.528 L 302.643,266.652 L 305.483,265.685 L 308.287,264.618 L 311.044,263.436 L 313.739,262.118 L 316.351,260.643 L 318.855,258.991 L 321.219,257.144 L 323.413,255.098 L 325.41,252.86 L 327.199,250.451 L 328.785,247.905 L 330.192,245.255 L 331.453,242.533 L 332.604,239.763 L 333.672,236.959 L 334.672,234.131 L 335.606,231.28 L 336.465,228.406 L 337.236,225.506 L 337.902,222.581 L 338.445,219.631 L 338.853,216.659 L 339.11,213.67 L 339.206,210.671 L 339.132,207.672 L 338.878,204.683 L 338.437,201.716 L 337.793,198.786 L 336.938,195.911 L 335.872,193.106 L 334.609,190.386 L 333.163,187.758 L 331.552,185.228 L 329.793,182.799 L 327.907,180.467 L 325.916,178.225 L 323.845,176.057 L 321.715,173.948 L 319.539,171.884 L 317.33,169.856 L 315.092,167.86 L 312.825,165.896 L 310.527,163.967 L 308.196,162.077 L 305.83,160.23 L 303.427,158.431 L 300.985,156.684 L 298.502,154.995 L 295.976,153.372 L 293.407,151.818 L 290.795,150.341 L 288.141,148.945 L 285.444,147.638 L 282.705,146.427 L 279.925,145.321 L 277.105,144.327 L 274.248,143.452 L 271.359,142.692 L 268.444,142.042 L 265.508,141.487 L 262.558,141.009 L 261.898,140.911 Z M 263.193,177.988 L 263.193,177.988 L 260.251,178.547 L 257.302,179.07 L 254.358,179.59 L 251.44,180.216 L 248.562,180.979 L 245.739,181.906 L 242.99,183.014 L 240.342,184.327 L 237.826,185.863 L 235.476,187.63 L 233.33,189.628 L 231.453,191.866 L 229.982,194.377 L 229.153,197.153 L 229.198,200.038 L 230.19,202.744 L 231.983,205.005 L 234.32,206.708 L 236.971,207.885 L 239.787,208.613 L 242.681,208.956 L 245.603,208.943 L 248.51,208.581 L 251.359,207.875 L 254.111,206.837 L 256.734,205.492 L 259.205,203.871 L 261.502,202.005 L 263.606,199.915 L 265.478,197.61 L 267.048,195.086 L 268.201,192.347 L 268.78,189.436 L 268.63,186.477 L 267.701,183.665 L 266.116,181.153 L 264.129,178.93 L 263.193,177.988 Z " style="fill:rgb(255,0,0);fill-opacity:1;fill-rule:evenodd;stroke:none" />
<path d="M 262.029,135.912 L 259.04,135.834 L 255.872,135.859 L 252.722,135.984 L 249.594,136.195 L 246.491,136.478 L 243.408,136.822 L 240.338,137.224 L 237.285,137.676 L 234.245,138.175 L 231.217,138.718 L 228.2,139.305 L 225.189,139.94 L 222.19,140.618 L 219.201,141.341 L 216.221,142.112 L 213.248,142.935 L 210.286,143.812 L 207.335,144.748 L 204.396,145.747 L 201.471,146.817 L 198.561,147.966 L 195.68,149.192 L 192.825,150.504 L 190.005,151.902 L 187.22,153.395 L 184.48,154.983 L 181.797,156.658 L 179.168,158.424 L 176.598,160.279 L 174.092,162.222 L 171.653,164.25 L 169.289,166.352 L 166.994,168.531 L 164.773,170.782 L 162.626,173.105 L 160.555,175.499 L 158.565,177.959 L 156.657,180.484 L 154.833,183.075 L 153.097,185.732 L 151.454,188.454 L 149.91,191.242 L 148.473,194.103 L 147.155,197.041 L 145.973,200.062 L 144.945,203.164 L 144.093,206.345 L 143.442,209.607 L 143.02,212.936 L 142.847,216.31 L 142.935,219.694 L 143.276,223.052 L 143.856,226.36 L 144.67,229.617 L 145.737,232.827 L 147.085,235.973 L 148.73,239.016 L 150.666,241.903 L 152.864,244.591 L 155.276,247.052 L 157.849,249.28 L 160.529,251.287 L 163.274,253.1 L 166.059,254.752 L 168.872,256.272 L 171.704,257.683 L 174.551,259.003 L 177.406,260.247 L 180.268,261.43 L 183.136,262.559 L 186.012,263.643 L 188.895,264.686 L 191.787,265.693 L 194.69,266.663 L 197.607,267.598 L 200.538,268.494 L 203.484,269.352 L 206.446,270.168 L 209.423,270.94 L 212.414,271.666 L 215.418,272.345 L 218.434,272.976 L 221.461,273.557 L 224.496,274.088 L 227.54,274.57 L 230.589,275.002 L 233.642,275.388 L 236.696,275.728 L 239.751,276.026 L 242.803,276.284 L 245.853,276.506 L 248.901,276.695 L 251.947,276.853 L 254.994,276.982 L 258.043,277.08 L 261.098,277.143 L 264.161,277.169 L 267.234,277.15 L 270.318,277.078 L 273.412,276.947 L 276.514,276.748 L 279.62,276.475 L 282.724,276.124 L 285.823,275.694 L 288.91,275.183 L 291.983,274.593 L 295.039,273.925 L 298.077,273.178 L 301.098,272.35 L 304.104,271.433 L 307.093,270.419 L 310.065,269.292 L 313.015,268.031 L 315.935,266.61 L 318.809,264.998 L 321.609,263.163 L 324.297,261.085 L 326.823,258.754 L 329.141,256.189 L 331.213,253.432 L 333.029,250.548 L 334.608,247.6 L 335.99,244.635 L 337.221,241.681 L 338.344,238.739 L 339.386,235.798 L 340.357,232.837 L 341.256,229.838 L 342.068,226.791 L 342.777,223.69 L 343.362,220.537 L 343.806,217.338 L 344.092,214.099 L 344.204,210.832 L 344.13,207.548 L 343.86,204.26 L 343.383,200.981 L 342.677,197.713 L 341.73,194.484 L 340.546,191.331 L 339.143,188.28 L 337.544,185.348 L 335.769,182.542 L 333.843,179.867 L 331.794,177.322 L 329.656,174.906 L 327.46,172.603 L 325.233,170.395 L 322.979,168.256 L 320.712,166.173 L 318.42,164.128 L 316.099,162.116 L 313.741,160.137 L 311.345,158.193 L 308.907,156.289 L 306.424,154.429 L 303.894,152.617 L 301.313,150.861 L 298.68,149.166 L 295.994,147.54 L 293.257,145.989 L 290.467,144.52 L 287.625,143.139 L 284.727,141.854 L 281.773,140.675 L 278.766,139.611 L 275.713,138.671 L 272.63,137.857 L 269.533,137.162 L 266.436,136.574 L 263.359,136.073 L 259.04,135.834 L 258.778,145.83 L 261.758,145.944 L 264.581,146.401 L 267.355,146.922 L 270.088,147.528 L 272.783,148.232 L 275.444,149.043 L 278.076,149.966 L 280.683,151 L 283.263,152.137 L 285.814,153.371 L 288.334,154.693 L 290.82,156.097 L 293.272,157.577 L 295.69,159.13 L 298.076,160.75 L 300.43,162.433 L 302.753,164.172 L 305.047,165.961 L 307.313,167.797 L 309.551,169.675 L 311.764,171.591 L 313.948,173.538 L 316.098,175.512 L 318.197,177.5 L 320.23,179.511 L 322.177,181.544 L 324.02,183.612 L 325.743,185.731 L 327.334,187.914 L 328.782,190.168 L 330.074,192.492 L 331.198,194.882 L 332.145,197.337 L 332.91,199.859 L 333.491,202.45 L 333.896,205.106 L 334.133,207.797 L 334.209,210.511 L 334.129,213.241 L 333.899,215.98 L 333.528,218.725 L 333.026,221.472 L 332.404,224.222 L 331.675,226.973 L 330.854,229.723 L 329.958,232.464 L 328.999,235.179 L 327.986,237.845 L 326.916,240.431 L 325.775,242.911 L 324.541,245.261 L 323.185,247.47 L 321.68,249.531 L 320.003,251.442 L 318.142,253.203 L 316.1,254.818 L 313.893,256.289 L 311.542,257.626 L 309.072,258.841 L 306.508,259.945 L 303.872,260.952 L 301.182,261.87 L 298.449,262.707 L 295.685,263.468 L 292.897,264.157 L 290.092,264.774 L 287.273,265.318 L 284.442,265.79 L 281.597,266.188 L 278.741,266.514 L 275.87,266.768 L 272.984,266.956 L 270.084,267.081 L 267.169,267.15 L 264.242,267.169 L 261.306,267.146 L 258.362,267.085 L 255.414,266.991 L 252.466,266.867 L 249.52,266.714 L 246.579,266.532 L 243.645,266.319 L 240.719,266.072 L 237.801,265.789 L 234.892,265.466 L 231.992,265.101 L 229.101,264.692 L 226.218,264.237 L 223.344,263.736 L 220.478,263.187 L 217.62,262.591 L 214.772,261.948 L 211.932,261.26 L 209.101,260.527 L 206.277,259.75 L 203.463,258.932 L 200.656,258.074 L 197.859,257.178 L 195.071,256.248 L 192.296,255.283 L 189.537,254.285 L 186.798,253.254 L 184.083,252.186 L 181.399,251.079 L 178.753,249.928 L 176.155,248.727 L 173.614,247.468 L 171.145,246.142 L 168.764,244.742 L 166.495,243.261 L 164.359,241.689 L 162.377,240.011 L 160.565,238.211 L 158.935,236.279 L 157.497,234.205 L 156.256,231.987 L 155.212,229.631 L 154.362,227.155 L 153.699,224.597 L 153.221,222 L 152.931,219.391 L 152.836,216.777 L 152.945,214.158 L 153.255,211.532 L 153.759,208.907 L 154.444,206.289 L 155.291,203.691 L 156.286,201.12 L 157.415,198.58 L 158.665,196.076 L 160.021,193.612 L 161.473,191.194 L 163.014,188.825 L 164.64,186.507 L 166.345,184.242 L 168.125,182.034 L 169.975,179.886 L 171.897,177.8 L 173.886,175.777 L 175.939,173.82 L 178.056,171.932 L 180.226,170.119 L 182.459,168.382 L 184.751,166.72 L 187.099,165.137 L 189.503,163.63 L 191.952,162.205 L 194.452,160.859 L 197.007,159.588 L 199.602,158.391 L 202.24,157.265 L 204.909,156.207 L 207.618,155.213 L 210.36,154.279 L 213.127,153.4 L 215.918,152.572 L 218.728,151.793 L 221.555,151.06 L 224.398,150.371 L 227.251,149.724 L 230.112,149.121 L 232.986,148.56 L 235.867,148.042 L 238.751,147.568 L 241.638,147.139 L 244.521,146.76 L 247.403,146.436 L 250.273,146.172 L 253.127,145.976 L 255.962,145.859 L 258.778,145.83 L 261.767,145.909 Z" style="fill:rgb(0,0,0);fill-opacity:1;fill-rule:nonzero;stroke:none" />
<path d="M 262.26,173.076 L 259.318,173.634 L 256.429,174.147 L 253.489,174.666 L 250.391,175.327 L 247.28,176.146 L 244.179,177.156 L 241.122,178.376 L 238.121,179.848 L 235.22,181.596 L 232.471,183.634 L 229.923,185.968 L 227.622,188.653 L 225.668,191.851 L 224.362,195.721 L 224.199,200.117 L 225.495,204.465 L 228.067,208.112 L 231.375,210.749 L 234.942,212.455 L 238.535,213.454 L 242.092,213.921 L 245.625,213.943 L 249.127,213.543 L 252.562,212.728 L 255.875,211.515 L 259.016,209.941 L 261.947,208.052 L 264.654,205.887 L 267.13,203.462 L 269.359,200.761 L 271.293,197.727 L 272.809,194.287 L 273.684,190.411 L 273.623,186.225 L 272.448,182.097 L 270.344,178.485 L 267.858,175.598 L 259.318,173.634 L 261.183,183.459 L 260.4,182.261 L 261.887,183.821 L 262.953,185.233 L 263.636,186.73 L 263.875,188.462 L 263.593,190.407 L 262.802,192.445 L 261.596,194.458 L 260.082,196.368 L 258.35,198.124 L 256.462,199.691 L 254.453,201.042 L 252.347,202.158 L 250.155,203.022 L 247.892,203.62 L 245.581,203.943 L 243.27,203.991 L 241.038,203.772 L 239,203.315 L 237.266,202.668 L 235.9,201.897 L 234.885,201.024 L 234.198,199.96 L 233.944,198.584 L 234.297,196.904 L 235.284,195.08 L 236.737,193.287 L 238.48,191.627 L 240.431,190.131 L 242.564,188.806 L 244.859,187.651 L 247.3,186.656 L 249.843,185.812 L 252.488,185.104 L 255.227,184.514 L 258.176,183.993 L 261.183,183.459 L 264.126,182.9 Z" style="fill:rgb(0,0,0);fill-opacity:1;fill-rule:nonzero;stroke:none" />
</svg>