<?xml version="1.0" encoding="UTF-8" standalone="no"?>
<!-- Created with VPaint (http://www.vpaint.org/) -->

<!DOCTYPE svg PUBLIC "-//W3C//DTD SVG 1.1//EN"
  "http://www.w3.org/Graphics/SVG/1.1/DTD/svg11.dtd">
<svg xmlns="http://www.w3.org/2000/svg">
<path d="M 425.001,399.122 L 425.075,402.141 L 425.132,405.133 L 425.16,408.104 L 425.166,411.085 L 425.155,414.077 L 425.124,417.062 L 425.08,420.062 L 425.026,423.062 L 424.965,426.069 L 424.9,429.083 L 424.838,432.105 L 424.781,435.135 L 424.736,438.173 L 424.707,441.218 L 424.698,444.27 L 424.713,447.33 L 424.755,450.393 L 424.826,453.457 L 424.926,456.524 L 425.059,459.593 L 425.227,462.666 L 425.434,465.74 L 425.679,468.811 L 425.96,471.878 L 426.277,474.939 L 426.63,477.996 L 427.017,481.048 L 427.437,484.092 L 427.885,487.127 L 428.357,490.15 L 428.847,493.161 L 429.349,496.162 L 429.858,499.152 L 430.37,502.134 L 430.88,505.108 L 431.384,508.077 L 431.879,511.042 L 432.363,514.004 L 432.831,516.962 L 433.28,519.916 L 433.705,522.866 L 434.101,525.811 L 434.463,528.754 L 434.79,531.695 L 435.078,534.635 L 435.325,537.576 L 435.529,540.516 L 435.691,543.459 L 435.813,546.407 L 435.902,549.368 L 435.968,552.347 L 436.001,554.095 L 445.999,553.905 L 445.965,552.126 L 445.898,549.068 L 445.805,545.992 L 445.676,542.907 L 445.505,539.82 L 445.289,536.737 L 445.03,533.66 L 444.728,530.59 L 444.388,527.53 L 444.011,524.479 L 443.603,521.44 L 443.167,518.413 L 442.708,515.398 L 442.232,512.392 L 441.742,509.394 L 441.243,506.403 L 440.736,503.419 L 440.226,500.443 L 439.716,497.473 L 439.212,494.511 L 438.717,491.556 L 438.237,488.607 L 437.778,485.664 L 437.343,482.725 L 436.938,479.788 L 436.564,476.849 L 436.224,473.907 L 435.918,470.962 L 435.647,468.016 L 435.411,465.068 L 435.212,462.117 L 435.049,459.16 L 434.921,456.196 L 434.823,453.227 L 434.755,450.255 L 434.713,447.279 L 434.698,444.301 L 434.707,441.313 L 434.735,438.32 L 434.78,435.32 L 434.835,432.312 L 434.898,429.297 L 434.963,426.273 L 435.025,423.243 L 435.079,420.206 L 435.123,417.167 L 435.155,414.113 L 435.166,411.067 L 435.16,408.009 L 435.131,404.942 L 435.072,401.896 L 434.999,398.878 Z" style="fill:rgb(0,0,0);fill-opacity:1;fill-rule:nonzero;stroke:none" />
<path d="M 139.381,92.4499 L 141.451,94.6214 L 143.456,96.7748 L 145.474,98.9618 L 147.594,101.191 L 149.813,103.405 L 152.108,105.562 L 154.459,107.648 L 156.843,109.661 L 159.268,111.616 L 161.694,113.509 L 164.139,115.363 L 166.597,117.183 L 169.056,118.972 L 171.523,120.74 L 173.989,122.49 L 176.456,124.228 L 178.917,125.956 L 181.377,127.68 L 183.83,129.402 L 186.279,131.125 L 188.72,132.85 L 191.159,134.581 L 193.595,136.316 L 196.03,138.056 L 198.467,139.8 L 200.903,141.545 L 203.337,143.292 L 205.766,145.041 L 208.193,146.793 L 210.62,148.548 L 213.049,150.306 L 215.484,152.066 L 215.569,152.127 L 221.411,144.011 L 221.341,143.961 L 218.913,142.206 L 216.481,140.446 L 214.046,138.685 L 211.608,136.925 L 209.168,135.168 L 206.727,133.416 L 204.286,131.667 L 201.844,129.92 L 199.397,128.171 L 196.946,126.425 L 194.492,124.684 L 192.033,122.946 L 189.575,121.217 L 187.117,119.492 L 184.664,117.772 L 182.214,116.052 L 179.776,114.335 L 177.349,112.613 L 174.939,110.885 L 172.546,109.145 L 170.181,107.396 L 167.845,105.624 L 165.54,103.827 L 163.292,102.019 L 161.09,100.162 L 158.951,98.2699 L 156.871,96.3207 L 154.839,94.2994 L 152.824,92.1816 L 150.773,89.9583 L 148.689,87.7217 L 146.619,85.5501 Z" style="fill:rgb(0,0,0);fill-opacity:1;fill-rule:nonzero;stroke:none" />
<path d="M 215.466,152.051 L 217.854,153.866 L 220.236,155.68 L 222.617,157.497 L 225.002,159.317 L 227.385,161.136 L 229.763,162.956 L 232.136,164.779 L 234.506,166.605 L 236.869,168.434 L 239.224,170.269 L 241.571,172.11 L 243.909,173.959 L 246.235,175.816 L 248.555,177.685 L 250.864,179.562 L 253.165,181.451 L 255.451,183.35 L 257.731,185.262 L 259.997,187.184 L 262.248,189.119 L 264.479,191.066 L 266.691,193.03 L 268.882,195.012 L 271.054,197.014 L 273.203,199.034 L 275.332,201.076 L 277.438,203.139 L 279.511,205.221 L 281.571,207.332 L 283.615,209.465 L 285.617,211.61 L 286.299,212.361 L 293.701,205.639 L 292.927,204.786 L 290.835,202.545 L 288.727,200.347 L 286.596,198.164 L 284.435,195.994 L 282.254,193.859 L 280.053,191.748 L 277.83,189.659 L 275.589,187.595 L 273.33,185.553 L 271.055,183.533 L 268.766,181.535 L 266.466,179.559 L 264.157,177.6 L 261.839,175.656 L 259.51,173.722 L 257.173,171.804 L 254.827,169.896 L 252.474,168.001 L 250.111,166.115 L 247.743,164.242 L 245.369,162.38 L 242.991,160.527 L 240.61,158.683 L 238.227,156.847 L 235.841,155.016 L 233.454,153.189 L 231.069,151.367 L 228.684,149.547 L 226.295,147.724 L 223.904,145.903 L 221.515,144.088 Z" style="fill:rgb(0,0,0);fill-opacity:1;fill-rule:nonzero;stroke:none" />
<path d="M 277.904,64.1331 L 276.183,66.591 L 274.464,69.0321 L 272.739,71.4658 L 271.005,73.8927 L 269.263,76.3112 L 267.512,78.7209 L 265.75,81.1232 L 263.978,83.5253 L 262.199,85.9228 L 260.413,88.3097 L 258.619,90.6821 L 256.813,93.0409 L 254.994,95.3866 L 253.159,97.7295 L 251.313,100.065 L 249.456,102.387 L 247.587,104.703 L 245.706,107.009 L 243.813,109.316 L 241.912,111.624 L 240.005,113.932 L 238.096,116.238 L 236.183,118.547 L 234.269,120.857 L 232.355,123.17 L 230.441,125.488 L 228.53,127.809 L 226.621,130.133 L 224.716,132.458 L 222.814,134.786 L 220.915,137.118 L 219.019,139.454 L 217.127,141.794 L 215.24,144.135 L 214.598,144.931 L 222.383,151.207 L 223.024,150.412 L 224.903,148.082 L 226.783,145.756 L 228.668,143.433 L 230.558,141.113 L 232.452,138.795 L 234.349,136.479 L 236.249,134.166 L 238.152,131.855 L 240.058,129.546 L 241.969,127.237 L 243.883,124.927 L 245.799,122.616 L 247.715,120.3 L 249.63,117.983 L 251.544,115.659 L 253.456,113.328 L 255.368,110.984 L 257.268,108.631 L 259.157,106.267 L 261.032,103.896 L 262.896,101.515 L 264.754,99.1191 L 266.595,96.7135 L 268.42,94.3001 L 270.229,91.8826 L 272.025,89.4621 L 273.815,87.0361 L 275.601,84.5996 L 277.377,82.1556 L 279.142,79.7055 L 280.896,77.2501 L 282.641,74.7895 L 284.376,72.3248 L 286.096,69.8669 Z" style="fill:rgb(0,0,0);fill-opacity:1;fill-rule:nonzero;stroke:none" />
<path d="M 214.549,144.993 L 212.703,147.358 L 210.858,149.718 L 209.011,152.077 L 207.161,154.435 L 205.311,156.79 L 203.458,159.145 L 201.603,161.5 L 199.747,163.85 L 197.889,166.198 L 196.027,168.553 L 194.165,170.922 L 192.308,173.301 L 190.456,175.721 L 188.627,178.153 L 186.818,180.61 L 185.036,183.065 L 183.271,185.538 L 181.525,188.006 L 179.792,190.467 L 178.065,192.924 L 176.341,195.348 L 174.61,197.715 L 172.855,199.985 L 171.055,202.121 L 169.189,204.081 L 167.216,205.909 L 165.112,207.674 L 162.863,209.48 L 160.562,211.261 L 158.193,213.091 L 156.97,214.023 L 163.03,221.977 L 164.307,221.005 L 166.685,219.167 L 169.128,217.274 L 171.556,215.321 L 174.04,213.219 L 176.453,210.953 L 178.71,208.555 L 180.77,206.097 L 182.683,203.618 L 184.493,201.141 L 186.245,198.676 L 187.969,196.224 L 189.69,193.78 L 191.409,191.348 L 193.13,188.938 L 194.872,186.538 L 196.62,184.162 L 198.397,181.798 L 200.191,179.454 L 202.026,177.103 L 203.872,174.755 L 205.731,172.404 L 207.596,170.046 L 209.459,167.687 L 211.316,165.329 L 213.174,162.968 L 215.03,160.606 L 216.884,158.242 L 218.736,155.877 L 220.586,153.511 L 222.432,151.146 Z" style="fill:rgb(0,0,0);fill-opacity:1;fill-rule:nonzero;stroke:none" />
<path d="M 209,499 L 209,499 L 209.499,497.954 L 210.791,495.247 L 212.085,492.54 L 213.385,489.837 L 214.697,487.139 L 216.029,484.451 L 217.391,481.778 L 218.799,479.128 L 220.271,476.514 L 221.825,473.948 L 223.473,471.441 L 225.22,469.003 L 227.061,466.634 L 228.984,464.332 L 230.979,462.09 L 233.035,459.906 L 235.148,457.777 L 237.32,455.707 L 239.553,453.704 L 241.85,451.774 L 244.207,449.918 L 246.613,448.127 L 249.052,446.379 L 251.5,444.645 L 253.932,442.888 L 256.319,441.072 L 258.632,439.16 L 260.826,437.115 L 262.842,434.893 L 264.606,432.467 L 266.05,429.837 L 267.143,427.043 L 267.901,424.141 L 268.372,421.178 L 268.606,418.187 L 268.644,415.187 L 268.504,412.191 L 268.195,409.207 L 267.716,406.245 L 267.064,403.317 L 266.244,400.431 L 265.271,397.593 L 264.162,394.806 L 262.943,392.065 L 261.638,389.363 L 260.264,386.696 L 258.838,384.057 L 257.371,381.44 L 255.868,378.844 L 254.328,376.269 L 252.749,373.719 L 251.122,371.198 L 249.442,368.713 L 247.711,366.262 L 245.939,363.842 L 244.145,361.437 L 242.346,359.036 L 240.557,356.628 L 238.786,354.206 L 237.033,351.772 L 235.291,349.329 L 233.551,346.886 L 231.803,344.447 L 230.05,342.013 L 228.292,339.582 L 226.536,337.15 L 224.804,334.7 L 223.105,332.228 L 221.423,329.743 L 219.744,327.257 L 218.054,324.779 L 216.36,322.303 L 214.688,319.812 L 213.075,317.283 L 211.543,314.703 L 210.091,312.078 L 208.698,309.421 L 207.343,306.745 L 206.005,304.06 L 204.665,301.375 L 203.321,298.694 L 202,296 L 201.593,298.972 L 201.179,301.944 L 200.763,304.915 L 200.352,307.886 L 199.941,310.858 L 199.516,313.828 L 199.056,316.792 L 198.519,319.744 L 197.848,322.668 L 197.001,325.545 L 195.98,328.366 L 194.836,331.139 L 193.6,333.873 L 192.311,336.582 L 191.013,339.287 L 189.741,342.004 L 188.437,344.705 L 187.07,347.375 L 185.625,350.005 L 184.132,352.607 L 182.62,355.198 L 181.131,357.802 L 179.689,360.433 L 178.312,363.098 L 177.002,365.797 L 175.761,368.529 L 174.589,371.29 L 173.492,374.082 L 172.486,376.909 L 171.596,379.774 L 170.846,382.678 L 170.252,385.619 L 169.826,388.588 L 169.572,391.577 L 169.494,394.576 L 169.597,397.574 L 169.888,400.56 L 170.368,403.521 L 171.043,406.445 L 171.92,409.313 L 173.012,412.108 L 174.321,414.807 L 175.844,417.391 L 177.562,419.85 L 179.445,422.186 L 181.442,424.425 L 183.494,426.613 L 185.545,428.802 L 187.553,431.031 L 189.49,433.322 L 191.349,435.677 L 193.139,438.084 L 194.871,440.534 L 196.551,443.019 L 198.176,445.541 L 199.726,448.109 L 201.178,450.735 L 202.507,453.424 L 203.689,456.181 L 204.693,459.008 L 205.53,461.889 L 206.223,464.808 L 206.8,467.752 L 207.283,470.713 L 207.687,473.685 L 208.015,476.667 L 208.27,479.657 L 208.466,482.65 L 208.618,485.646 L 208.741,488.644 L 208.845,491.642 L 208.922,494.641 L 208.979,497.64 L 209,499 Z " style="fill:rgb(0,170,0);fill-opacity:1;fill-rule:evenodd;stroke:none" />
<path d="M 197.046,295.322 L 196.64,298.295 L 196.227,301.253 L 195.812,304.222 L 195.399,307.201 L 194.989,310.174 L 194.567,313.119 L 194.115,316.025 L 193.6,318.849 L 192.975,321.55 L 192.205,324.133 L 191.278,326.664 L 190.214,329.233 L 189.044,331.812 L 187.796,334.435 L 186.506,337.123 L 185.213,339.883 L 183.934,342.532 L 182.619,345.096 L 181.243,347.597 L 179.795,350.118 L 178.301,352.677 L 176.79,355.321 L 175.304,358.03 L 173.87,360.803 L 172.504,363.615 L 171.209,366.46 L 169.986,369.336 L 168.838,372.255 L 167.776,375.232 L 166.821,378.291 L 166.005,381.427 L 165.351,384.629 L 164.877,387.878 L 164.59,391.153 L 164.496,394.447 L 164.6,397.746 L 164.911,401.044 L 165.433,404.323 L 166.171,407.569 L 167.138,410.775 L 168.355,413.927 L 169.823,416.989 L 171.536,419.929 L 173.464,422.715 L 175.552,425.324 L 177.71,427.753 L 179.847,430.034 L 181.898,432.222 L 183.838,434.377 L 185.672,436.55 L 187.424,438.775 L 189.126,441.067 L 190.788,443.421 L 192.409,445.82 L 193.974,448.249 L 195.445,450.692 L 196.802,453.154 L 198.025,455.64 L 199.094,458.151 L 199.982,460.681 L 200.728,463.283 L 201.358,465.963 L 201.893,468.713 L 202.348,471.518 L 202.733,474.359 L 203.045,477.214 L 203.288,480.081 L 203.476,482.977 L 203.625,485.901 L 203.745,488.848 L 203.848,491.816 L 203.924,494.769 L 203.98,497.736 L 204.001,499.076 L 213.999,498.924 L 213.978,497.545 L 213.92,494.513 L 213.842,491.468 L 213.737,488.439 L 213.612,485.392 L 213.455,482.324 L 213.252,479.232 L 212.985,476.121 L 212.642,473.011 L 212.218,469.907 L 211.706,466.79 L 211.088,463.653 L 210.331,460.495 L 209.405,457.335 L 208.285,454.211 L 206.99,451.208 L 205.554,448.315 L 204.007,445.526 L 202.379,442.832 L 200.693,440.218 L 198.953,437.647 L 197.152,435.102 L 195.274,432.579 L 193.308,430.093 L 191.268,427.685 L 189.193,425.383 L 187.141,423.193 L 185.173,421.097 L 183.338,419.048 L 181.661,416.986 L 180.152,414.854 L 178.82,412.624 L 177.669,410.288 L 176.701,407.852 L 175.915,405.32 L 175.304,402.72 L 174.864,400.077 L 174.594,397.403 L 174.493,394.705 L 174.554,392.002 L 174.775,389.298 L 175.153,386.608 L 175.687,383.929 L 176.371,381.257 L 177.197,378.585 L 178.146,375.91 L 179.191,373.244 L 180.313,370.597 L 181.501,367.98 L 182.754,365.394 L 184.074,362.836 L 185.472,360.283 L 186.938,357.718 L 188.468,355.096 L 190.007,352.412 L 191.52,349.655 L 192.94,346.879 L 194.27,344.124 L 195.521,341.45 L 196.827,338.729 L 198.155,335.934 L 199.458,333.046 L 200.681,330.068 L 201.797,326.958 L 202.722,323.786 L 203.438,320.638 L 203.996,317.56 L 204.466,314.536 L 204.894,311.542 L 205.305,308.572 L 205.715,305.607 L 206.131,302.635 L 206.547,299.65 L 206.954,296.678 Z" style="fill:rgb(0,0,0);fill-opacity:1;fill-rule:nonzero;stroke:none" />
<path d="M 197.511,298.201 L 198.831,300.895 L 200.196,303.617 L 201.531,306.292 L 202.868,308.975 L 204.238,311.68 L 205.662,314.399 L 207.168,317.124 L 208.775,319.836 L 210.473,322.501 L 212.208,325.089 L 213.928,327.602 L 215.613,330.074 L 217.28,332.542 L 218.963,335.03 L 220.683,337.532 L 222.453,340.037 L 224.238,342.509 L 225.999,344.944 L 227.746,347.369 L 229.487,349.798 L 231.218,352.23 L 232.962,354.675 L 234.729,357.128 L 236.522,359.579 L 238.332,362.017 L 240.143,364.435 L 241.931,366.832 L 243.676,369.216 L 245.358,371.598 L 246.98,373.999 L 248.547,376.43 L 250.077,378.902 L 251.577,381.41 L 253.044,383.945 L 254.477,386.502 L 255.866,389.073 L 257.192,391.652 L 258.44,394.24 L 259.593,396.838 L 260.625,399.442 L 261.514,402.053 L 262.254,404.683 L 262.836,407.333 L 263.259,410.005 L 263.531,412.706 L 263.649,415.42 L 263.607,418.125 L 263.387,420.787 L 262.963,423.357 L 262.305,425.78 L 261.394,428.015 L 260.224,430.06 L 258.798,431.954 L 257.123,433.754 L 255.222,435.503 L 253.134,437.218 L 250.904,438.909 L 248.571,440.593 L 246.162,442.299 L 243.701,444.062 L 241.221,445.907 L 238.756,447.846 L 236.336,449.877 L 233.982,451.985 L 231.699,454.157 L 229.486,456.383 L 227.337,458.664 L 225.249,461.008 L 223.224,463.428 L 221.272,465.935 L 219.408,468.53 L 217.647,471.201 L 215.994,473.925 L 214.442,476.675 L 212.976,479.431 L 211.574,482.18 L 210.217,484.919 L 208.889,487.65 L 207.579,490.373 L 206.28,493.089 L 204.986,495.801 L 204.487,496.848 L 213.513,501.152 L 214.011,500.107 L 215.301,497.404 L 216.591,494.708 L 217.882,492.024 L 219.178,489.358 L 220.484,486.721 L 221.806,484.124 L 223.156,481.581 L 224.548,479.104 L 226.002,476.695 L 227.538,474.353 L 229.168,472.071 L 230.898,469.84 L 232.719,467.655 L 234.62,465.517 L 236.583,463.429 L 238.597,461.397 L 240.659,459.429 L 242.771,457.532 L 244.944,455.702 L 247.192,453.929 L 249.525,452.191 L 251.942,450.459 L 254.429,448.698 L 256.959,446.868 L 259.505,444.926 L 262.041,442.818 L 264.528,440.475 L 266.887,437.833 L 268.988,434.874 L 270.706,431.659 L 271.981,428.307 L 272.839,424.925 L 273.356,421.569 L 273.606,418.249 L 273.638,414.955 L 273.478,411.675 L 273.131,408.408 L 272.596,405.158 L 271.873,401.951 L 270.973,398.809 L 269.916,395.745 L 268.73,392.774 L 267.445,389.89 L 266.083,387.075 L 264.663,384.319 L 263.2,381.612 L 261.698,378.935 L 260.159,376.277 L 258.579,373.637 L 256.95,371.008 L 255.264,368.397 L 253.525,365.828 L 251.745,363.309 L 249.946,360.851 L 248.146,358.44 L 246.36,356.055 L 244.593,353.676 L 242.844,351.284 L 241.104,348.869 L 239.364,346.429 L 237.615,343.973 L 235.861,341.525 L 234.101,339.082 L 232.346,336.656 L 230.618,334.263 L 228.924,331.868 L 227.246,329.426 L 225.566,326.944 L 223.875,324.441 L 222.18,321.955 L 220.512,319.517 L 218.903,317.123 L 217.374,314.73 L 215.918,312.283 L 214.52,309.757 L 213.159,307.162 L 211.818,304.514 L 210.479,301.827 L 209.135,299.134 L 207.81,296.492 L 206.489,293.799 Z" style="fill:rgb(0,0,0);fill-opacity:1;fill-rule:nonzero;stroke:none" />
<path d="M 451.726,208.418 L 451.726,208.418 L 448.76,208.867 L 445.786,209.255 L 442.798,209.52 L 439.803,209.677 L 436.805,209.779 L 433.805,209.729 L 430.808,209.629 L 427.814,209.432 L 424.83,209.134 L 421.85,208.786 L 418.893,208.279 L 415.948,207.715 L 413.026,207.036 L 410.138,206.23 L 407.266,205.36 L 404.472,204.269 L 401.714,203.095 L 399.029,201.756 L 396.434,200.257 L 393.884,198.677 L 391.477,196.887 L 389.113,195.042 L 386.838,193.087 L 384.657,191.029 L 382.525,188.919 L 380.531,186.677 L 378.59,184.391 L 376.757,182.017 L 375.047,179.554 L 373.399,177.047 L 371.96,174.415 L 370.597,171.745 L 369.388,169 L 368.342,166.19 L 367.379,163.349 L 366.672,160.434 L 366.053,157.501 L 365.608,154.534 L 365.338,151.549 L 365.157,148.555 L 365.237,145.556 L 365.404,142.563 L 365.743,139.582 L 366.251,136.628 L 366.844,133.687 L 367.688,130.808 L 368.614,127.957 L 369.703,125.162 L 370.952,122.437 L 372.282,119.748 L 373.842,117.185 L 375.474,114.671 L 377.251,112.254 L 379.162,109.945 L 381.14,107.689 L 383.304,105.612 L 385.524,103.598 L 387.857,101.711 L 390.287,99.9562 L 392.767,98.2681 L 395.374,96.7834 L 398.017,95.3674 L 400.731,94.0888 L 403.502,92.9452 L 406.302,91.8691 L 409.168,90.9812 L 412.05,90.1519 L 414.964,89.4399 L 417.903,88.8448 L 420.855,88.3082 L 423.835,87.966 L 426.822,87.6981 L 429.819,87.5788 L 432.817,87.6247 L 435.814,87.7533 L 438.787,88.1518 L 441.743,88.6446 L 444.665,89.326 L 447.533,90.1938 L 450.375,91.1548 L 453.114,92.3803 L 455.81,93.6882 L 458.424,95.1609 L 460.943,96.7856 L 463.414,98.4863 L 465.732,100.391 L 467.997,102.355 L 470.154,104.44 L 472.202,106.629 L 474.195,108.871 L 476.022,111.251 L 477.793,113.671 L 479.452,116.17 L 481,118.739 L 482.491,121.342 L 483.814,124.034 L 485.08,126.752 L 486.233,129.522 L 487.269,132.336 L 488.246,135.172 L 489.048,138.063 L 489.786,140.97 L 490.405,143.905 L 490.894,146.864 L 491.318,149.833 L 491.548,152.825 L 491.698,155.819 L 491.708,158.819 L 491.561,161.814 L 491.337,164.805 L 490.886,167.771 L 490.337,170.717 L 489.627,173.632 L 488.722,176.489 L 487.724,179.318 L 486.453,182.035 L 485.07,184.693 L 483.509,187.254 L 481.742,189.674 L 479.88,192.024 L 477.771,194.158 L 475.571,196.191 L 473.236,198.075 L 470.767,199.773 L 468.24,201.389 L 465.588,202.79 L 462.895,204.108 L 460.146,205.309 L 457.352,206.4 L 454.541,207.447 L 451.726,208.418 Z " style="fill:rgb(255,170,127);fill-opacity:1;fill-rule:evenodd;stroke:none" />
<path d="M 450.977,203.474 L 448.011,203.923 L 445.139,204.297 L 442.356,204.54 L 439.542,204.684 L 436.635,204.782 L 433.889,204.729 L 430.973,204.632 L 428.143,204.443 L 425.326,204.159 L 422.43,203.82 L 419.739,203.351 L 416.889,202.804 L 414.157,202.166 L 411.482,201.414 L 408.716,200.575 L 406.292,199.612 L 403.673,198.494 L 401.26,197.282 L 398.936,195.928 L 396.517,194.427 L 394.461,192.874 L 392.19,191.1 L 390.095,189.294 L 388.09,187.393 L 386.041,185.364 L 384.267,183.354 L 382.402,181.155 L 380.714,178.961 L 379.154,176.702 L 377.577,174.301 L 376.347,172.016 L 375.051,169.472 L 373.963,166.983 L 373.028,164.446 L 372.114,161.744 L 371.531,159.256 L 370.945,156.468 L 370.553,153.793 L 370.318,151.1 L 370.148,148.252 L 370.235,145.689 L 370.396,142.841 L 370.711,140.147 L 371.179,137.476 L 371.746,134.676 L 372.486,132.215 L 373.37,129.501 L 374.362,126.977 L 375.497,124.521 L 376.764,121.963 L 378.112,119.786 L 379.668,117.394 L 381.28,115.215 L 383.014,113.132 L 384.899,110.987 L 386.767,109.218 L 388.884,107.301 L 391.002,105.598 L 393.213,104.01 L 395.581,102.401 L 397.849,101.128 L 400.378,99.7745 L 402.861,98.612 L 405.409,97.5672 L 408.096,96.5363 L 410.648,95.7572 L 413.433,94.9569 L 416.151,94.297 L 418.896,93.7454 L 421.749,93.2276 L 424.406,92.9333 L 427.268,92.6781 L 430.018,92.5748 L 432.74,92.6241 L 435.599,92.7487 L 438.123,93.1075 L 440.921,93.5766 L 443.529,94.1953 L 446.086,94.9796 L 448.774,95.8913 L 451.071,96.9441 L 453.628,98.187 L 455.969,99.517 L 458.232,100.987 L 460.58,102.605 L 462.558,104.254 L 464.72,106.132 L 466.68,108.036 L 468.551,110.045 L 470.458,112.193 L 472.056,114.296 L 473.758,116.624 L 475.287,118.936 L 476.717,121.319 L 478.152,123.827 L 479.327,126.24 L 480.547,128.863 L 481.617,131.444 L 482.576,134.063 L 483.519,136.801 L 484.23,139.4 L 484.94,142.2 L 485.513,144.937 L 485.961,147.679 L 486.369,150.541 L 486.562,153.207 L 486.704,156.069 L 486.708,158.836 L 486.567,161.568 L 486.351,164.432 L 485.943,167.018 L 485.422,169.802 L 484.769,172.449 L 483.956,174.979 L 483.009,177.653 L 481.924,179.918 L 480.635,182.384 L 479.239,184.653 L 477.704,186.724 L 475.96,188.92 L 474.215,190.643 L 472.177,192.52 L 470.098,194.182 L 467.933,195.654 L 465.547,197.177 L 463.253,198.368 L 460.696,199.618 L 458.144,200.728 L 455.534,201.742 L 452.795,202.762 L 450.096,203.691 L 453.356,213.145 L 456.286,212.133 L 459.17,211.058 L 462.148,209.891 L 465.094,208.599 L 467.922,207.211 L 470.934,205.601 L 473.601,203.892 L 476.375,201.967 L 478.966,199.863 L 481.327,197.673 L 483.799,195.129 L 485.779,192.623 L 487.779,189.856 L 489.505,187.001 L 490.983,184.153 L 492.439,180.982 L 493.489,178 L 494.486,174.815 L 495.253,171.632 L 495.829,168.523 L 496.323,165.178 L 496.555,162.059 L 496.708,158.801 L 496.692,155.569 L 496.533,152.442 L 496.268,149.126 L 495.827,146.049 L 495.297,142.873 L 494.632,139.739 L 493.866,136.727 L 492.973,133.544 L 491.961,130.609 L 490.849,127.6 L 489.613,124.642 L 488.301,121.828 L 486.829,118.856 L 485.283,116.158 L 483.618,113.404 L 481.828,110.718 L 479.988,108.207 L 477.932,105.55 L 475.854,103.214 L 473.628,100.843 L 471.273,98.5784 L 468.906,96.5276 L 466.249,94.3674 L 463.653,92.5839 L 460.878,90.8048 L 457.992,89.1893 L 455.156,87.8165 L 451.977,86.4183 L 448.981,85.408 L 445.801,84.4567 L 442.566,83.7127 L 439.451,83.1962 L 436.028,82.7579 L 432.893,82.6253 L 429.62,82.5827 L 426.375,82.7181 L 423.265,82.9986 L 419.961,83.3888 L 416.911,83.9442 L 413.777,84.5827 L 410.667,85.3469 L 407.688,86.2052 L 404.509,87.2018 L 401.595,88.3232 L 398.6,89.5656 L 395.655,90.9602 L 392.9,92.4386 L 389.954,94.1347 L 387.361,95.9018 L 384.712,97.8235 L 382.165,99.8944 L 379.841,102.005 L 377.381,104.392 L 375.31,106.757 L 373.222,109.293 L 371.281,111.949 L 369.571,114.585 L 367.799,117.532 L 366.407,120.353 L 365.044,123.347 L 363.858,126.413 L 362.89,129.402 L 361.943,132.698 L 361.324,135.78 L 360.775,139.017 L 360.411,142.285 L 360.239,145.422 L 360.166,148.857 L 360.359,151.998 L 360.663,155.276 L 361.161,158.534 L 361.813,161.612 L 362.644,164.955 L 363.656,167.935 L 364.812,171.016 L 366.144,174.018 L 367.573,176.813 L 369.221,179.794 L 370.94,182.405 L 372.799,185.073 L 374.779,187.627 L 376.795,190 L 379.008,192.473 L 381.225,194.665 L 383.58,196.88 L 386.037,198.983 L 388.493,200.899 L 391.251,202.927 L 393.933,204.586 L 396.799,206.231 L 399.756,207.695 L 402.653,208.926 L 405.817,210.146 L 408.793,211.046 L 411.895,211.907 L 415.007,212.626 L 418.048,213.207 L 421.27,213.753 L 424.334,214.11 L 427.485,214.421 L 430.642,214.626 L 433.721,214.728 L 436.975,214.776 L 440.064,214.67 L 443.24,214.501 L 446.433,214.213 L 449.509,213.811 L 452.475,213.361 Z" style="fill:rgb(0,0,0);fill-opacity:1;fill-rule:nonzero;stroke:none" />
<path d="M 509,445 L 509,445 L 508.894,444.477 L 508.274,441.542 L 507.651,438.608 L 507.112,435.657 L 506.706,432.686 L 506.42,429.699 L 506.189,426.708 L 506.032,423.713 L 505.917,420.715 L 505.844,417.716 L 505.828,414.716 L 505.846,411.716 L 505.933,408.717 L 506.042,405.719 L 506.187,402.723 L 506.363,399.728 L 506.558,396.734 L 506.783,393.743 L 507.016,390.752 L 507.264,387.762 L 507.523,384.773 L 507.795,381.786 L 508.085,378.8 L 508.387,375.815 L 508.705,372.832 L 509.035,369.85 L 509.37,366.869 L 509.707,363.888 L 510.04,360.907 L 510.366,357.924 L 510.687,354.942 L 510.989,351.957 L 511.277,348.971 L 511.546,345.983 L 511.782,342.992 L 512,340 L 510.948,339.978 L 507.949,339.914 L 504.95,339.851 L 501.95,339.788 L 498.951,339.724 L 495.952,339.661 L 492.952,339.598 L 489.953,339.534 L 486.954,339.471 L 483.954,339.408 L 480.955,339.344 L 477.956,339.281 L 474.956,339.218 L 471.957,339.154 L 468.958,339.091 L 465.958,339.028 L 462.959,338.964 L 459.96,338.901 L 456.96,338.838 L 453.961,338.774 L 450.962,338.711 L 447.962,338.647 L 444.963,338.584 L 441.964,338.521 L 438.965,338.457 L 435.965,338.394 L 432.966,338.331 L 429.966,338.268 L 426.967,338.207 L 423.968,338.147 L 420.968,338.09 L 417.969,338.032 L 414.969,337.971 L 411.97,337.902 L 408.971,337.828 L 405.972,337.745 L 402.974,337.657 L 399.975,337.565 L 396.976,337.476 L 393.977,337.395 L 390.978,337.327 L 387.978,337.287 L 384.979,337.267 L 381.979,337.326 L 378.981,337.417 L 375.984,337.57 L 372.991,337.772 L 370,338 L 369.755,340.99 L 369.517,343.981 L 369.295,346.972 L 369.065,349.963 L 368.83,352.954 L 368.604,355.946 L 368.379,358.937 L 368.157,361.929 L 367.935,364.921 L 367.713,367.913 L 367.487,370.904 L 367.255,373.895 L 367.011,376.885 L 366.753,379.874 L 366.487,382.862 L 366.196,385.848 L 365.894,388.833 L 365.57,391.815 L 365.221,394.795 L 364.861,397.773 L 364.448,400.745 L 364.012,403.713 L 363.532,406.674 L 363.008,409.628 L 362.462,412.578 L 361.86,415.517 L 361.261,418.456 L 360.665,421.397 L 360.116,424.346 L 359.592,427.3 L 359.129,430.264 L 358.701,433.233 L 358.342,436.212 L 358.096,439.202 L 357.906,442.196 L 358,445 L 361,445 L 364,445 L 367,445 L 370,445 L 373,445 L 376,445 L 379,445 L 382,445 L 385,445 L 388,445 L 391,445 L 394,445 L 397,445 L 400,445 L 403,445 L 406,445 L 409,445 L 412,445 L 415,445 L 418,445 L 421,445 L 424,445 L 427,445 L 430,445 L 433,445 L 436,445 L 439,445 L 442,445 L 445,445 L 448,445 L 451,445 L 454,445 L 457,445 L 460,445 L 463,445 L 466,445 L 469,445 L 472,445 L 475,445 L 478,445 L 481,445 L 484,445 L 487,445 L 490,445 L 493,445 L 496,445 L 499,445 L 502,445 L 505,445 L 508,445 L 509,445 Z " style="fill:rgb(85,0,255);fill-opacity:1;fill-rule:evenodd;stroke:none" />
<path d="M 365.017,337.592 L 364.772,340.582 L 364.533,343.585 L 364.309,346.602 L 364.079,349.579 L 363.845,352.563 L 363.618,355.569 L 363.394,358.563 L 363.171,361.559 L 362.949,364.55 L 362.727,367.542 L 362.501,370.527 L 362.27,373.509 L 362.028,376.479 L 361.771,379.443 L 361.506,382.419 L 361.22,385.364 L 360.92,388.33 L 360.599,391.275 L 360.255,394.214 L 359.897,397.172 L 359.495,400.056 L 359.065,402.987 L 358.596,405.874 L 358.085,408.755 L 357.545,411.669 L 356.962,414.514 L 356.361,417.457 L 355.764,420.403 L 355.2,423.432 L 354.669,426.426 L 354.189,429.492 L 353.752,432.52 L 353.378,435.614 L 353.113,438.791 L 352.916,441.879 L 353.003,445.167 L 362.997,444.833 L 362.896,442.512 L 363.079,439.612 L 363.306,436.809 L 363.65,433.947 L 364.069,431.036 L 364.515,428.174 L 365.032,425.26 L 365.565,422.39 L 366.16,419.456 L 366.759,416.52 L 367.379,413.487 L 367.931,410.501 L 368.467,407.475 L 368.959,404.439 L 369.4,401.433 L 369.824,398.374 L 370.188,395.376 L 370.541,392.356 L 370.869,389.336 L 371.173,386.332 L 371.467,383.306 L 371.734,380.305 L 371.995,377.291 L 372.24,374.282 L 372.473,371.281 L 372.699,368.283 L 372.921,365.291 L 373.144,362.299 L 373.365,359.312 L 373.59,356.322 L 373.815,353.345 L 374.05,350.348 L 374.281,347.343 L 374.502,344.376 L 374.738,341.398 L 374.983,338.408 Z" style="fill:rgb(0,0,0);fill-opacity:1;fill-rule:nonzero;stroke:none" />
<path d="M 370.379,342.986 L 373.371,342.758 L 376.322,342.558 L 379.235,342.41 L 382.131,342.324 L 385.076,342.266 L 387.945,342.287 L 390.913,342.326 L 393.864,342.393 L 396.84,342.475 L 399.827,342.563 L 402.821,342.654 L 405.824,342.743 L 408.834,342.826 L 411.847,342.901 L 414.854,342.97 L 417.868,343.03 L 420.871,343.089 L 423.871,343.146 L 426.868,343.206 L 429.865,343.267 L 432.861,343.33 L 435.86,343.393 L 438.859,343.456 L 441.858,343.52 L 444.858,343.583 L 447.857,343.646 L 450.856,343.71 L 453.856,343.773 L 456.855,343.836 L 459.854,343.9 L 462.854,343.963 L 465.853,344.026 L 468.852,344.09 L 471.852,344.153 L 474.851,344.217 L 477.85,344.28 L 480.85,344.343 L 483.849,344.407 L 486.848,344.47 L 489.848,344.533 L 492.847,344.597 L 495.846,344.66 L 498.846,344.723 L 501.845,344.787 L 504.844,344.85 L 507.844,344.913 L 510.843,344.977 L 511.894,344.999 L 512.106,335.001 L 511.054,334.979 L 508.055,334.916 L 505.055,334.852 L 502.056,334.789 L 499.057,334.726 L 496.057,334.662 L 493.058,334.599 L 490.059,334.535 L 487.059,334.472 L 484.06,334.409 L 481.061,334.345 L 478.061,334.282 L 475.062,334.219 L 472.063,334.155 L 469.063,334.092 L 466.064,334.029 L 463.065,333.965 L 460.065,333.902 L 457.066,333.839 L 454.067,333.775 L 451.067,333.712 L 448.068,333.649 L 445.069,333.585 L 442.069,333.522 L 439.07,333.459 L 436.071,333.395 L 433.071,333.332 L 430.068,333.269 L 427.066,333.208 L 424.064,333.148 L 421.065,333.091 L 418.069,333.033 L 415.085,332.972 L 412.094,332.904 L 409.109,332.83 L 406.12,332.748 L 403.126,332.659 L 400.123,332.567 L 397.113,332.478 L 394.091,332.396 L 391.044,332.327 L 388.012,332.287 L 384.881,332.268 L 381.828,332.328 L 378.726,332.423 L 375.647,332.581 L 372.612,332.787 L 369.621,333.014 Z" style="fill:rgb(0,0,0);fill-opacity:1;fill-rule:nonzero;stroke:none" />
<path d="M 358,450 L 361,450 L 364,450 L 367,450 L 370,450 L 373,450 L 376,450 L 379,450 L 382,450 L 385,450 L 388,450 L 391,450 L 394,450 L 397,450 L 400,450 L 403,450 L 406,450 L 409,450 L 412,450 L 415,450 L 418,450 L 421,450 L 424,450 L 427,450 L 430,450 L 433,450 L 436,450 L 439,450 L 442,450 L 445,450 L 448,450 L 451,450 L 454,450 L 457,450 L 460,450 L 463,450 L 466,450 L 469,450 L 472,450 L 475,450 L 478,450 L 481,450 L 484,450 L 487,450 L 490,450 L 493,450 L 496,450 L 499,450 L 502,450 L 505,450 L 508,450 L 509,450 L 509,440 L 508,440 L 505,440 L 502,440 L 499,440 L 496,440 L 493,440 L 490,440 L 487,440 L 484,440 L 481,440 L 478,440 L 475,440 L 472,440 L 469,440 L 466,440 L 463,440 L 460,440 L 457,440 L 454,440 L 451,440 L 448,440 L 445,440 L 442,440 L 439,440 L 436,440 L 433,440 L 430,440 L 427,440 L 424,440 L 421,440 L 418,440 L 415,440 L 412,440 L 409,440 L 406,440 L 403,440 L 400,440 L 397,440 L 394,440 L 391,440 L 388,440 L 385,440 L 382,440 L 379,440 L 376,440 L 373,440 L 370,440 L 367,440 L 364,440 L 361,440 L 358,440 Z" style="fill:rgb(0,0,0);fill-opacity:1;fill-rule:nonzero;stroke:none" />
<path d="M 507.013,339.637 L 506.795,342.629 L 506.562,345.589 L 506.298,348.523 L 506.012,351.476 L 505.712,354.438 L 505.395,357.39 L 505.07,360.363 L 504.738,363.332 L 504.402,366.308 L 504.066,369.291 L 503.736,372.283 L 503.416,375.285 L 503.111,378.296 L 502.819,381.303 L 502.544,384.32 L 502.283,387.331 L 502.034,390.34 L 501.798,393.353 L 501.572,396.359 L 501.373,399.403 L 501.196,402.431 L 501.048,405.478 L 500.936,408.535 L 500.848,411.571 L 500.828,414.686 L 500.844,417.742 L 500.918,420.837 L 501.035,423.904 L 501.195,426.97 L 501.435,430.085 L 501.729,433.162 L 502.158,436.334 L 502.733,439.506 L 503.383,442.58 L 504.001,445.51 L 504.101,445.998 L 513.899,444.002 L 513.786,443.445 L 513.165,440.504 L 512.57,437.709 L 512.066,434.979 L 511.683,432.209 L 511.405,429.314 L 511.182,426.447 L 511.028,423.521 L 510.915,420.593 L 510.844,417.69 L 510.828,414.746 L 510.844,411.861 L 510.93,408.899 L 511.036,405.961 L 511.179,403.015 L 511.352,400.053 L 511.544,397.11 L 511.768,394.132 L 511.999,391.164 L 512.245,388.194 L 512.502,385.227 L 512.772,382.269 L 513.06,379.303 L 513.359,376.345 L 513.675,373.381 L 514.003,370.409 L 514.339,367.43 L 514.676,364.444 L 515.01,361.45 L 515.338,358.459 L 515.662,355.445 L 515.966,352.438 L 516.257,349.418 L 516.531,346.376 L 516.769,343.355 L 516.987,340.363 Z" style="fill:rgb(0,0,0);fill-opacity:1;fill-rule:nonzero;stroke:none" />
<path d="M 427.054,274.265 L 426.617,277.208 L 426.209,280.225 L 425.865,283.295 L 425.58,286.352 L 425.344,289.397 L 425.173,292.479 L 425.048,295.521 L 424.961,298.56 L 424.907,301.589 L 424.879,304.607 L 424.873,307.62 L 424.882,310.62 L 424.9,313.611 L 424.922,316.594 L 424.945,319.572 L 424.966,322.545 L 424.984,325.515 L 424.998,328.484 L 425.008,331.453 L 425.014,334.423 L 425.017,337.394 L 425.017,340.366 L 425.015,343.337 L 425.011,346.31 L 425.007,349.286 L 425.004,352.264 L 425.002,355.242 L 425.002,358.22 L 425.001,361.197 L 425.001,364.173 L 425.001,367.149 L 425.001,370.125 L 425.001,373.101 L 425.001,376.077 L 425.001,379.053 L 425.001,382.029 L 425.001,385.005 L 425,387.981 L 425,390.957 L 425,393.933 L 425,396.909 L 425,399 L 435,399 L 435,396.91 L 435,393.934 L 435,390.958 L 435,387.981 L 435.001,385.005 L 435.001,382.029 L 435.001,379.053 L 435.001,376.077 L 435.001,373.101 L 435.001,370.125 L 435.001,367.149 L 435.001,364.173 L 435.001,361.198 L 435.002,358.222 L 435.002,355.248 L 435.004,352.274 L 435.007,349.3 L 435.011,346.324 L 435.015,343.345 L 435.017,340.364 L 435.017,337.384 L 435.014,334.403 L 435.007,331.421 L 434.998,328.438 L 434.984,325.455 L 434.966,322.473 L 434.945,319.494 L 434.922,316.52 L 434.9,313.552 L 434.882,310.59 L 434.873,307.638 L 434.879,304.699 L 434.906,301.766 L 434.957,298.843 L 435.039,295.933 L 435.158,293.028 L 435.314,290.166 L 435.537,287.277 L 435.803,284.407 L 436.12,281.562 L 436.508,278.679 L 436.946,275.735 Z" style="fill:rgb(0,0,0);fill-opacity:1;fill-rule:nonzero;stroke:none" />
<path d="M 318,246 L 318,246 L 316.211,248.408 L 314.438,250.828 L 312.69,253.267 L 310.974,255.727 L 309.297,258.215 L 307.667,260.733 L 306.086,263.283 L 304.56,265.866 L 303.101,268.487 L 301.739,271.16 L 300.505,273.895 L 299.425,276.693 L 298.505,279.549 L 297.749,282.452 L 297.17,285.396 L 296.785,288.371 L 296.608,291.366 L 296.649,294.365 L 296.943,297.351 L 297.573,300.284 L 298.627,303.093 L 300.169,305.666 L 302.177,307.894 L 304.563,309.712 L 307.213,311.116 L 310.028,312.154 L 312.939,312.879 L 315.904,313.337 L 318.895,313.557 L 321.895,313.552 L 324.885,313.313 L 327.844,312.824 L 330.745,312.061 L 333.545,310.989 L 336.193,309.581 L 338.642,307.851 L 340.859,305.833 L 342.836,303.579 L 344.577,301.137 L 346.095,298.55 L 347.39,295.846 L 348.431,293.034 L 349.208,290.138 L 349.709,287.183 L 349.925,284.192 L 349.851,281.195 L 349.489,278.219 L 348.85,275.291 L 347.95,272.431 L 346.813,269.656 L 345.463,266.978 L 343.922,264.406 L 342.204,261.948 L 340.317,259.618 L 338.261,257.435 L 336.04,255.422 L 333.66,253.597 L 331.144,251.967 L 328.518,250.518 L 325.814,249.219 L 323.062,248.026 L 320.282,246.899 L 318,246 Z " style="fill:rgb(255,255,0);fill-opacity:1;fill-rule:evenodd;stroke:none" />
<path d="M 313.986,243.019 L 312.197,245.427 L 310.405,247.873 L 308.626,250.353 L 306.873,252.868 L 305.152,255.42 L 303.47,258.015 L 301.836,260.649 L 300.255,263.322 L 298.732,266.056 L 297.284,268.89 L 295.948,271.837 L 294.76,274.894 L 293.746,278.016 L 292.91,281.191 L 292.264,284.431 L 291.826,287.729 L 291.617,291.071 L 291.65,294.433 L 291.967,297.841 L 292.684,301.333 L 293.945,304.849 L 295.88,308.236 L 298.462,311.241 L 301.533,313.689 L 304.872,315.534 L 308.299,316.845 L 311.729,317.731 L 315.141,318.279 L 318.529,318.544 L 321.904,318.552 L 325.284,318.297 L 328.659,317.757 L 332.017,316.896 L 335.333,315.658 L 338.54,313.996 L 341.526,311.935 L 344.224,309.531 L 346.595,306.876 L 348.648,304.04 L 350.408,301.08 L 351.899,298.006 L 353.12,294.77 L 354.037,291.434 L 354.639,288.019 L 354.912,284.553 L 354.85,281.072 L 354.453,277.616 L 353.734,274.223 L 352.719,270.93 L 351.439,267.76 L 349.928,264.728 L 348.211,261.837 L 346.303,259.084 L 344.202,256.471 L 341.902,254.007 L 339.397,251.716 L 336.703,249.629 L 333.862,247.77 L 330.933,246.14 L 327.98,244.712 L 325.049,243.438 L 322.161,242.265 L 319.832,241.348 L 316.168,250.652 L 318.402,251.532 L 321.075,252.615 L 323.648,253.725 L 326.102,254.896 L 328.426,256.163 L 330.618,257.564 L 332.682,259.127 L 334.621,260.862 L 336.431,262.765 L 338.106,264.812 L 339.633,266.976 L 340.998,269.229 L 342.186,271.552 L 343.18,273.931 L 343.965,276.358 L 344.526,278.823 L 344.853,281.319 L 344.938,283.832 L 344.78,286.347 L 344.379,288.843 L 343.742,291.298 L 342.88,293.686 L 341.782,296.021 L 340.506,298.234 L 339.078,300.282 L 337.494,302.135 L 335.757,303.767 L 333.845,305.166 L 331.758,306.319 L 329.472,307.225 L 327.03,307.891 L 324.487,308.329 L 321.886,308.552 L 319.262,308.571 L 316.667,308.396 L 314.149,308.028 L 311.757,307.462 L 309.555,306.698 L 307.593,305.734 L 305.891,304.547 L 304.457,303.096 L 303.308,301.336 L 302.461,299.235 L 301.919,296.86 L 301.649,294.297 L 301.6,291.66 L 301.743,289.013 L 302.076,286.36 L 302.587,283.713 L 303.265,281.082 L 304.09,278.493 L 305.062,275.952 L 306.195,273.43 L 307.471,270.918 L 308.864,268.41 L 310.336,265.917 L 311.863,263.451 L 313.443,261.01 L 315.076,258.587 L 316.754,256.18 L 318.471,253.784 L 320.225,251.39 L 322.014,248.981 Z" style="fill:rgb(0,0,0);fill-opacity:1;fill-rule:nonzero;stroke:none" />
</svg>