<?xml version="1.0" encoding="UTF-8" standalone="no"?>
<!-- Created with VPaint (http://www.vpaint.org/) -->

<!DOCTYPE svg PUBLIC "-//W3C//DTD SVG 1.1//EN"
  "http://www.w3.org/Graphics/SVG/1.1/DTD/svg11.dtd">
<svg xmlns="http://www.w3.org/2000/svg">
<path d="M 213.229,91.5252 L 213.229,91.5252 L 210.277,90.9877 L 207.31,90.5788 L 204.315,90.4021 L 201.323,90.5162 L 198.336,90.774 L 195.403,91.4035 L 192.509,92.1755 L 189.671,93.148 L 186.92,94.3377 L 184.211,95.6233 L 181.63,97.1513 L 179.136,98.8097 L 176.754,100.634 L 174.585,102.699 L 172.514,104.865 L 170.724,107.273 L 169.079,109.774 L 167.609,112.389 L 166.38,115.123 L 165.255,117.902 L 164.392,120.775 L 163.674,123.683 L 163.122,126.632 L 162.825,129.615 L 162.636,132.607 L 162.723,135.605 L 162.97,138.59 L 163.398,141.56 L 164.146,144.46 L 165.041,147.318 L 166.354,150.015 L 167.92,152.555 L 169.766,154.92 L 171.992,156.914 L 174.356,158.75 L 176.999,160.17 L 179.734,161.378 L 182.569,162.361 L 185.486,163.047 L 188.428,163.619 L 191.412,163.929 L 194.404,164.098 L 197.404,164.119 L 200.394,163.901 L 203.375,163.583 L 206.319,163.006 L 209.222,162.27 L 212.083,161.367 L 214.838,160.188 L 217.542,158.896 L 220.096,157.322 L 222.541,155.593 L 224.872,153.705 L 226.99,151.586 L 229.019,149.38 L 230.809,146.973 L 232.442,144.463 L 233.915,141.85 L 235.083,139.09 L 236.117,136.279 L 236.79,133.356 L 237.23,130.398 L 237.436,127.405 L 237.252,124.416 L 236.916,121.439 L 236.213,118.523 L 235.31,115.67 L 234.207,112.879 L 232.81,110.229 L 231.301,107.639 L 229.537,105.213 L 227.637,102.898 L 225.606,100.69 L 223.383,98.6783 L 221.092,96.7452 L 218.658,94.9916 L 216.16,93.3337 L 213.609,91.755 L 213.229,91.5252 Z " style="fill:rgb(255,0,0);fill-opacity:1;fill-rule:evenodd;stroke:none" />
<path d="M 214.124,86.6061 L 211.173,86.0686 L 207.993,85.6256 L 204.61,85.4107 L 201.133,85.5198 L 197.906,85.7925 L 194.354,86.5148 L 191.22,87.3445 L 188.05,88.418 L 184.936,89.7485 L 182.068,91.1062 L 179.083,92.8484 L 176.367,94.6463 L 173.714,96.6639 L 171.137,99.0787 L 168.9,101.41 L 166.712,104.29 L 164.901,107.027 L 163.251,109.939 L 161.82,113.074 L 160.621,116.024 L 159.603,119.337 L 158.82,122.485 L 158.207,125.711 L 157.85,129.12 L 157.646,132.291 L 157.725,135.75 L 157.987,139.003 L 158.449,142.273 L 159.305,145.71 L 160.269,148.812 L 161.858,152.204 L 163.664,155.18 L 165.823,157.996 L 168.656,160.639 L 171.288,162.699 L 174.633,164.575 L 177.714,165.952 L 180.931,167.085 L 184.341,167.914 L 187.473,168.527 L 190.896,168.902 L 194.121,169.09 L 197.369,169.119 L 200.758,168.888 L 203.905,168.555 L 207.281,167.912 L 210.451,167.116 L 213.587,166.135 L 216.806,164.784 L 219.697,163.408 L 222.72,161.578 L 225.428,159.676 L 228.019,157.59 L 230.526,155.121 L 232.699,152.765 L 234.821,149.956 L 236.633,147.191 L 238.271,144.304 L 239.687,141.039 L 240.809,138.005 L 241.663,134.479 L 242.176,131.134 L 242.424,127.748 L 242.243,124.108 L 241.884,120.878 L 241.074,117.351 L 240.076,114.16 L 238.858,111.042 L 237.232,107.896 L 235.622,105.123 L 233.581,102.273 L 231.502,99.7257 L 229.286,97.3046 L 226.738,94.971 L 224.316,92.9235 L 221.581,90.9348 L 218.924,89.1677 L 216.24,87.5033 L 211.173,86.0686 L 209.381,95.9068 L 210.977,96.0066 L 213.395,97.4998 L 215.735,99.0484 L 217.868,100.567 L 220.028,102.386 L 221.926,104.075 L 223.772,106.07 L 225.493,108.153 L 226.981,110.156 L 228.387,112.561 L 229.557,114.716 L 230.543,117.179 L 231.352,119.694 L 231.948,122 L 232.262,124.723 L 232.448,127.062 L 232.285,129.662 L 231.918,132.233 L 231.424,134.553 L 230.478,137.142 L 229.559,139.395 L 228.252,141.736 L 226.797,143.989 L 225.339,145.996 L 223.455,148.051 L 221.724,149.82 L 219.654,151.511 L 217.473,153.066 L 215.387,154.384 L 212.871,155.591 L 210.579,156.599 L 207.993,157.423 L 205.356,158.099 L 202.845,158.611 L 200.03,158.914 L 197.439,159.119 L 194.687,159.106 L 191.928,158.956 L 189.383,158.711 L 186.63,158.179 L 184.206,157.637 L 181.754,156.805 L 179.364,155.765 L 177.423,154.802 L 175.328,153.19 L 173.708,151.845 L 172.176,149.93 L 170.85,147.827 L 169.813,145.824 L 168.988,143.21 L 168.347,140.847 L 167.953,138.178 L 167.721,135.461 L 167.626,132.922 L 167.801,130.109 L 168.036,127.553 L 168.528,124.882 L 169.181,122.213 L 169.889,119.779 L 170.941,117.172 L 171.967,114.84 L 173.257,112.522 L 174.737,110.256 L 176.128,108.321 L 178.034,106.32 L 179.794,104.603 L 181.905,102.973 L 184.176,101.454 L 186.355,100.14 L 188.905,98.9269 L 191.292,97.878 L 193.798,97.0065 L 196.452,96.2922 L 198.766,95.7555 L 201.514,95.5125 L 204.021,95.3934 L 206.627,95.5319 L 209.381,95.9068 L 212.333,96.4443 Z" style="fill:rgb(0,0,0);fill-opacity:1;fill-rule:nonzero;stroke:none" />
</svg>