<?xml version="1.0" encoding="UTF-8" standalone="no"?>
<!-- Created with VPaint (http://www.vpaint.org/) -->

<!DOCTYPE svg PUBLIC "-//W3C//DTD SVG 1.1//EN"
  "http://www.w3.org/Graphics/SVG/1.1/DTD/svg11.dtd">
<svg xmlns="http://www.w3.org/2000/svg">
<path d="M 124,83.5 L 124,83.5 L 121.03,83.9263 L 118.068,84.399 L 115.115,84.928 L 112.175,85.5234 L 109.25,86.1931 L 106.348,86.9524 L 103.479,87.8289 L 100.659,88.8524 L 97.9052,90.0428 L 95.2286,91.3979 L 92.625,92.8882 L 90.0878,94.489 L 87.6133,96.1851 L 85.2099,97.9806 L 82.8904,99.8832 L 80.6777,101.909 L 78.6005,104.074 L 76.6646,106.365 L 74.8924,108.786 L 73.2961,111.326 L 71.8803,113.971 L 70.6596,116.711 L 69.6493,119.536 L 68.8581,122.43 L 68.3102,125.379 L 68.0296,128.366 L 68.0482,131.366 L 68.3877,134.347 L 69.0661,137.269 L 70.0964,140.087 L 71.4861,142.745 L 73.2189,145.194 L 75.2645,147.389 L 77.5764,149.301 L 80.0969,150.928 L 82.7714,152.287 L 85.556,153.403 L 88.4183,154.301 L 91.3359,155 L 94.2924,155.509 L 97.274,155.84 L 100.27,156.002 L 103.27,155.998 L 106.265,155.829 L 109.246,155.496 L 112.203,154.992 L 115.125,154.313 L 117.999,153.453 L 120.814,152.415 L 123.557,151.201 L 126.215,149.81 L 128.77,148.238 L 131.205,146.487 L 133.502,144.558 L 135.659,142.474 L 137.673,140.251 L 139.502,137.874 L 141.125,135.352 L 142.52,132.697 L 143.67,129.928 L 144.562,127.065 L 145.191,124.132 L 145.554,121.156 L 145.656,118.159 L 145.5,115.164 L 145.087,112.194 L 144.418,109.271 L 143.493,106.418 L 142.319,103.659 L 140.907,101.014 L 139.28,98.4948 L 137.464,96.1077 L 135.493,93.847 L 133.399,91.6989 L 131.215,89.6432 L 128.966,87.6569 L 126.678,85.7171 L 124.368,83.8028 L 124,83.5 Z " style="fill:rgb(0,255,0);fill-opacity:1;fill-rule:evenodd;stroke:none" />
<path d="M 123.29,78.5507 L 120.32,78.977 L 117.28,79.4615 L 114.233,80.0063 L 111.182,80.6228 L 108.134,81.3193 L 105.082,82.1152 L 102.018,83.047 L 98.953,84.1524 L 95.9211,85.4533 L 92.9702,86.9369 L 90.1411,88.5488 L 87.4197,90.2604 L 84.7865,92.0609 L 82.2175,93.9749 L 79.7194,96.0174 L 77.3014,98.2211 L 74.9929,100.612 L 72.845,103.139 L 70.858,105.832 L 69.0627,108.666 L 67.4722,111.611 L 66.0922,114.677 L 64.9413,117.852 L 64.0351,121.111 L 63.3943,124.466 L 63.0515,127.899 L 63.0483,131.397 L 63.4198,134.913 L 64.1957,138.4 L 65.4006,141.804 L 67.0549,145.062 L 69.1373,148.082 L 71.6072,150.798 L 74.39,153.154 L 77.3851,155.128 L 80.5065,156.744 L 83.6952,158.044 L 86.921,159.072 L 90.1724,159.862 L 93.444,160.436 L 96.7217,160.809 L 100,160.994 L 103.276,160.998 L 106.546,160.822 L 109.802,160.465 L 113.043,159.921 L 116.258,159.182 L 119.433,158.243 L 122.544,157.106 L 125.58,155.774 L 128.534,154.239 L 131.389,152.497 L 134.123,150.548 L 136.718,148.387 L 139.134,146.069 L 141.378,143.609 L 143.465,140.923 L 145.33,138.056 L 146.946,135.023 L 148.288,131.845 L 149.336,128.552 L 150.08,125.18 L 150.517,121.762 L 150.653,118.329 L 150.493,114.903 L 150.04,111.505 L 149.292,108.155 L 148.25,104.877 L 146.92,101.701 L 145.319,98.6599 L 143.479,95.781 L 141.444,93.0807 L 139.261,90.5609 L 136.98,88.209 L 134.641,86.0017 L 132.277,83.9099 L 129.911,81.903 L 127.559,79.953 L 127.176,79.6382 L 120.824,87.3618 L 121.178,87.6525 L 123.445,89.5312 L 125.656,91.404 L 127.788,93.2846 L 129.819,95.1887 L 131.724,97.1331 L 133.485,99.1346 L 135.08,101.209 L 136.496,103.367 L 137.718,105.618 L 138.737,107.96 L 139.544,110.387 L 140.135,112.882 L 140.507,115.424 L 140.659,117.988 L 140.591,120.549 L 140.302,123.085 L 139.789,125.577 L 139.052,128.01 L 138.094,130.371 L 136.919,132.647 L 135.539,134.825 L 133.969,136.894 L 132.185,138.878 L 130.286,140.73 L 128.288,142.427 L 126.15,143.979 L 123.895,145.38 L 121.534,146.629 L 119.084,147.723 L 116.566,148.662 L 113.992,149.443 L 111.364,150.063 L 108.691,150.527 L 105.984,150.837 L 103.263,150.998 L 100.539,151.009 L 97.8263,150.871 L 95.1408,150.581 L 92.4995,150.137 L 89.9156,149.531 L 87.4167,148.762 L 85.0363,147.829 L 82.8086,146.727 L 80.7628,145.448 L 78.9219,143.979 L 77.3005,142.306 L 75.9173,140.429 L 74.7923,138.37 L 73.9366,136.138 L 73.3556,133.781 L 73.0481,131.335 L 73.0077,128.834 L 73.2261,126.293 L 73.6812,123.748 L 74.3573,121.22 L 75.2269,118.746 L 76.2884,116.331 L 77.5296,113.987 L 78.9269,111.74 L 80.4842,109.592 L 82.2082,107.535 L 84.0539,105.597 L 86.0615,103.749 L 88.2023,101.986 L 90.4401,100.309 L 92.7559,98.7176 L 95.1088,97.2276 L 97.487,95.8588 L 99.8892,94.6323 L 102.365,93.5524 L 104.94,92.6107 L 107.614,91.7896 L 110.367,91.0669 L 113.167,90.4239 L 115.997,89.8496 L 118.856,89.3365 L 121.741,88.8755 L 124.71,88.4493 Z" style="fill:rgb(0,0,0);fill-opacity:1;fill-rule:nonzero;stroke:none" />
</svg>