<?xml version="1.0" encoding="UTF-8" standalone="no"?>
<!-- Created with VPaint (http://www.vpaint.org/) -->

<!DOCTYPE svg PUBLIC "-//W3C//DTD SVG 1.1//EN"
  "http://www.w3.org/Graphics/SVG/1.1/DTD/svg11.dtd">
<svg xmlns="http://www.w3.org/2000/svg">
<path d="M 95,193 L 95,193 L 96.9013,191.732 L 99.3863,190.051 L 101.848,188.337 L 104.272,186.569 L 106.639,184.726 L 108.931,182.791 L 111.129,180.749 L 113.213,178.592 L 115.173,176.321 L 117.011,173.949 L 118.74,171.498 L 120.377,168.984 L 121.926,166.415 L 123.376,163.789 L 124.71,161.102 L 125.934,158.363 L 127.041,155.575 L 128.037,152.745 L 128.918,149.877 L 129.698,146.981 L 130.397,144.063 L 131.001,141.125 L 131.503,138.167 L 131.906,135.194 L 132.206,132.209 L 132.412,129.216 L 132.528,126.218 L 132.55,123.219 L 132.478,120.219 L 132.309,117.224 L 132.038,114.237 L 131.671,111.259 L 131.204,108.296 L 130.636,105.35 L 129.967,102.425 L 129.197,99.526 L 128.32,96.6569 L 127.337,93.8225 L 126.241,91.03 L 125.003,88.2974 L 123.581,85.6556 L 121.952,83.1366 L 120.129,80.7536 L 118.188,78.4668 L 116.144,76.2707 L 113.997,74.1756 L 111.735,72.2045 L 109.361,70.3706 L 106.889,68.6714 L 104.348,67.0752 L 101.771,65.5395 L 99.1805,64.0269 L 96.5903,62.5133 L 94,61 L 92.4442,63.565 L 90.8912,66.1318 L 89.3412,68.7004 L 87.795,71.2712 L 86.2531,73.8446 L 84.7167,76.4213 L 83.1871,79.0021 L 81.6671,81.5886 L 80.1663,84.1861 L 78.7057,86.8066 L 77.299,89.4564 L 75.9405,92.1311 L 74.6131,94.8215 L 73.3091,97.5232 L 72.0366,100.24 L 70.8013,102.974 L 69.6124,105.728 L 68.4866,108.509 L 67.4349,111.319 L 66.473,114.16 L 65.6166,117.035 L 64.8705,119.941 L 64.2491,122.876 L 63.7586,125.836 L 63.4035,128.815 L 63.1581,131.805 L 63.0568,134.803 L 63.1049,137.802 L 63.2934,140.797 L 63.6383,143.777 L 64.1421,146.734 L 64.7959,149.662 L 65.612,152.549 L 66.5821,155.388 L 67.6998,158.172 L 68.9481,160.9 L 70.3086,163.573 L 71.7819,166.186 L 73.3661,168.734 L 75.076,171.199 L 76.9098,173.573 L 78.8498,175.861 L 80.8676,178.081 L 82.9332,180.257 L 85.0234,182.409 L 87.1209,184.554 L 89.206,186.71 L 91.2618,188.895 L 93.289,191.107 L 95,193 Z " style="fill:rgb(0,0,255);fill-opacity:1;fill-rule:evenodd;stroke:none" />
<path d="M 89.7249,58.407 L 88.1691,60.972 L 86.6133,63.5434 L 85.0602,66.1171 L 83.5102,68.6942 L 81.9641,71.2748 L 80.4222,73.8606 L 78.8858,76.4529 L 77.3564,79.0552 L 75.837,81.6847 L 74.3383,84.3722 L 72.8827,87.112 L 71.4826,89.8669 L 70.1292,92.6092 L 68.8062,95.3498 L 67.5087,98.1193 L 66.2449,100.915 L 65.0218,103.747 L 63.852,106.633 L 62.7522,109.566 L 61.737,112.557 L 60.8246,115.608 L 60.0276,118.698 L 59.3575,121.84 L 58.8259,125.018 L 58.4386,128.223 L 58.1748,131.396 L 58.0596,134.634 L 58.1056,137.883 L 58.3033,141.111 L 58.6715,144.352 L 59.2131,147.574 L 59.9161,150.752 L 60.8005,153.909 L 61.8508,157.004 L 63.0598,160.034 L 64.4015,162.98 L 65.8524,165.841 L 67.4264,168.642 L 69.1201,171.374 L 70.9677,174.049 L 72.9528,176.629 L 75.0361,179.095 L 77.1677,181.444 L 79.307,183.699 L 81.4368,185.892 L 83.5461,188.049 L 85.6111,190.186 L 87.6205,192.322 L 89.6032,194.485 L 91.2904,196.352 L 98.7096,189.648 L 96.9748,187.728 L 94.9032,185.469 L 92.8009,183.235 L 90.6957,181.058 L 88.61,178.925 L 86.5593,176.814 L 84.5676,174.718 L 82.6635,172.628 L 80.8668,170.516 L 79.1843,168.349 L 77.6121,166.094 L 76.1374,163.731 L 74.7649,161.306 L 73.4947,158.819 L 72.3398,156.309 L 71.3135,153.771 L 70.4234,151.189 L 69.6757,148.572 L 69.0711,145.894 L 68.6052,143.202 L 68.2835,140.482 L 68.1043,137.722 L 68.0539,134.972 L 68.1413,132.214 L 68.3683,129.406 L 68.6913,126.653 L 69.1407,123.912 L 69.7134,121.185 L 70.4085,118.463 L 71.209,115.763 L 72.1176,113.071 L 73.1212,110.385 L 74.2029,107.71 L 75.3577,105.033 L 76.5646,102.361 L 77.812,99.6967 L 79.0971,97.0338 L 80.3985,94.3954 L 81.7154,91.8007 L 83.073,89.2409 L 84.4956,86.6876 L 85.9778,84.1219 L 87.4884,81.5514 L 89.0112,78.9821 L 90.5422,76.4145 L 92.0798,73.8482 L 93.6222,71.2836 L 95.1691,68.7201 L 96.7192,66.1581 L 98.2751,63.593 Z" style="fill:rgb(0,0,0);fill-opacity:1;fill-rule:nonzero;stroke:none" />
<path d="M 91.4778,65.3172 L 94.0681,66.8306 L 96.6578,68.3439 L 99.2504,69.8575 L 101.789,71.3704 L 104.228,72.9049 L 106.529,74.4912 L 108.679,76.1615 L 110.712,77.945 L 112.652,79.8494 L 114.527,81.873 L 116.318,83.99 L 117.98,86.1741 L 119.383,88.371 L 120.6,90.6666 L 121.687,93.0937 L 122.683,95.6495 L 123.596,98.2952 L 124.415,100.987 L 125.135,103.709 L 125.762,106.465 L 126.294,109.242 L 126.732,112.038 L 127.075,114.848 L 127.33,117.677 L 127.486,120.501 L 127.551,123.338 L 127.528,126.182 L 127.415,129.022 L 127.218,131.867 L 126.931,134.693 L 126.548,137.496 L 126.072,140.288 L 125.499,143.056 L 124.836,145.817 L 124.09,148.576 L 123.257,151.278 L 122.325,153.913 L 121.286,156.518 L 120.145,159.063 L 118.898,161.564 L 117.549,163.999 L 116.095,166.402 L 114.55,168.769 L 112.925,171.068 L 111.221,173.258 L 109.428,175.325 L 107.533,177.274 L 105.528,179.128 L 103.413,180.905 L 101.2,182.624 L 98.9013,184.298 L 96.5292,185.948 L 94.1002,187.59 L 92.2258,188.84 L 97.7742,197.16 L 99.7024,195.874 L 102.243,194.155 L 104.795,192.376 L 107.344,190.514 L 109.864,188.546 L 112.334,186.454 L 114.724,184.223 L 116.999,181.858 L 119.125,179.383 L 121.097,176.831 L 122.929,174.227 L 124.659,171.566 L 126.304,168.831 L 127.854,166.013 L 129.276,163.141 L 130.581,160.208 L 131.756,157.236 L 132.817,154.212 L 133.745,151.178 L 134.561,148.145 L 135.294,145.07 L 135.93,141.962 L 136.458,138.838 L 136.881,135.695 L 137.195,132.551 L 137.408,129.411 L 137.528,126.255 L 137.549,123.099 L 137.47,119.938 L 137.289,116.771 L 137,113.626 L 136.61,110.48 L 136.113,107.35 L 135.51,104.235 L 134.799,101.141 L 133.978,98.0654 L 133.044,95.0186 L 131.991,91.9956 L 130.795,88.9662 L 129.406,85.9282 L 127.78,82.9402 L 125.924,80.099 L 123.941,77.5173 L 121.848,75.0607 L 119.636,72.6919 L 117.282,70.4062 L 114.792,68.2476 L 112.193,66.25 L 109.549,64.4379 L 106.908,62.7799 L 104.292,61.2215 L 101.703,59.71 L 99.1126,58.1961 L 96.5222,56.6828 Z" style="fill:rgb(0,0,0);fill-opacity:1;fill-rule:nonzero;stroke:none" />
</svg>